<?xml version="1.0" standalone="no"?>
<!DOCTYPE svg PUBLIC "-//W3C//DTD SVG 20010904//EN"
 "http://www.w3.org/TR/2001/REC-SVG-20010904/DTD/svg10.dtd">
<svg version="1.0" xmlns="http://www.w3.org/2000/svg"
 width="500.000000pt" height="500.000000pt" viewBox="0 0 500.000000 500.000000"
 preserveAspectRatio="xMidYMid meet">

<g transform="translate(0.000000,500.000000) scale(0.100000,-0.100000)"
fill="#000000" stroke="none">
<path d="M1719 4725 c-34 -18 -77 -82 -94 -138 -23 -77 -45 -109 -135 -198
-91 -92 -120 -146 -120 -227 0 -89 -22 -163 -68 -231 -62 -91 -83 -161 -88
-301 -3 -63 -15 -169 -26 -235 -19 -107 -20 -131 -11 -230 12 -121 8 -159 -31
-281 -94 -291 -100 -530 -19 -732 13 -35 22 -68 20 -75 -3 -7 -76 -43 -162
-81 -114 -51 -155 -73 -153 -85 2 -10 63 -40 166 -81 89 -36 166 -70 171 -76
14 -15 44 -155 35 -163 -5 -4 -65 -54 -134 -111 -135 -111 -163 -138 -155
-150 3 -4 42 -13 87 -19 103 -13 332 -41 339 -41 3 0 20 -23 38 -51 l31 -51
-36 -81 c-20 -45 -49 -109 -64 -142 -82 -183 -84 -186 -71 -195 8 -4 97 21
220 63 l206 71 62 -48 c49 -38 62 -53 58 -70 -12 -53 -45 -358 -40 -366 4 -6
11 -10 16 -10 6 0 87 56 180 125 l170 125 72 -19 c40 -11 94 -23 121 -26 43
-7 50 -11 62 -42 8 -19 27 -62 43 -96 16 -34 39 -87 51 -117 27 -65 46 -88 60
-74 5 5 37 74 70 154 34 80 66 150 71 156 6 7 38 17 73 23 35 6 84 17 110 25
l46 14 169 -124 c93 -68 174 -124 179 -124 22 0 22 24 2 182 -28 226 -31 208
43 263 34 25 69 44 77 42 8 -3 99 -34 201 -70 115 -40 191 -62 200 -57 10 7
-6 51 -70 192 -46 101 -85 192 -88 204 -3 12 8 41 27 71 36 57 28 54 195 73
218 24 255 31 255 49 0 9 -61 67 -139 131 -77 63 -140 122 -140 130 0 8 8 47
17 85 21 81 11 74 222 160 75 31 126 57 128 66 2 11 -39 35 -149 84 -83 38
-153 74 -155 80 -3 6 4 33 15 59 29 66 48 146 61 250 18 144 -2 270 -86 546
-24 81 -25 93 -19 235 6 121 4 164 -10 225 -9 41 -18 128 -20 193 -6 186 -20
232 -110 376 -19 30 -36 72 -39 95 -26 211 -31 228 -93 297 -41 46 -55 48 -77
13 -27 -40 -41 -25 -38 39 3 47 0 62 -22 94 -14 21 -26 44 -26 53 0 29 -58
137 -85 159 -90 70 -147 22 -172 -147 -24 -170 -70 -302 -127 -369 -23 -27
-35 -33 -66 -33 -61 0 -137 -19 -243 -62 -90 -36 -105 -39 -195 -39 -101 -1
-98 -1 -276 66 -37 14 -101 28 -143 32 -68 6 -76 9 -98 38 -58 75 -103 207
-125 365 -21 155 -71 209 -151 165z m80 -56 c25 -41 55 -243 47 -313 -8 -58 1
-126 15 -126 5 0 9 15 9 34 0 55 14 50 45 -15 16 -33 35 -65 42 -71 21 -17 15
-33 -24 -61 -42 -30 -31 -35 24 -12 38 16 138 21 147 6 3 -4 -10 -17 -29 -27
-47 -25 -45 -39 3 -17 66 30 128 28 212 -7 146 -60 285 -61 434 -1 86 35 136
39 191 15 48 -20 70 -12 28 10 -18 9 -33 21 -33 26 0 16 104 12 145 -6 53 -22
63 -13 22 19 l-36 27 35 57 c18 31 36 65 40 75 9 30 24 20 24 -17 0 -19 4 -35
10 -35 14 0 23 65 16 120 -6 46 2 126 26 252 10 52 36 98 57 98 30 0 101 -94
101 -134 0 -7 13 -40 30 -71 31 -58 37 -85 21 -85 -13 0 -42 43 -79 115 -17
33 -37 69 -46 80 l-16 20 -16 -20 c-14 -17 -15 -42 -11 -172 6 -170 -3 -272
-30 -328 l-18 -38 30 -21 c79 -56 335 -330 321 -343 -2 -2 -64 55 -137 127
-90 89 -151 140 -184 156 -71 34 -90 30 -28 -6 76 -43 83 -63 14 -39 -63 22
-42 0 38 -40 45 -23 81 -46 81 -51 0 -13 -1 -13 -60 10 -61 24 -95 28 -65 6
11 -7 49 -28 85 -46 71 -37 123 -70 117 -76 -2 -2 -18 0 -35 5 -18 5 -32 8
-32 7 0 -2 54 -43 119 -91 109 -80 146 -115 122 -115 -5 0 -38 16 -73 36 -81
47 -123 61 -199 70 -73 8 -75 -7 -3 -25 83 -21 144 -60 259 -167 87 -80 117
-115 131 -149 9 -25 15 -48 12 -50 -3 -3 -20 18 -39 47 -48 74 -205 199 -292
234 -73 28 -98 27 -48 -2 37 -22 40 -37 6 -28 -37 9 -30 -3 15 -26 37 -19 58
-49 25 -36 -8 3 -15 1 -15 -5 0 -5 7 -12 15 -15 23 -9 6 -25 -20 -18 -20 5
-116 -9 -150 -23 -14 -5 -36 86 -29 114 6 21 -11 63 -24 63 -5 0 -6 -16 -4
-35 6 -55 -9 -65 -97 -65 -128 0 -243 -32 -298 -83 -35 -32 -27 -40 17 -17 63
32 66 24 12 -35 -53 -57 -85 -126 -104 -223 -9 -41 -13 -50 -24 -41 -10 9 -16
1 -25 -35 -13 -54 -25 -59 -34 -15 -5 23 -9 28 -16 18 -5 -8 -9 -24 -9 -36 0
-13 -5 -23 -11 -23 -11 0 -10 18 7 120 l5 35 -21 -32 c-27 -41 -41 -41 -65 -1
-25 43 -31 20 -10 -42 17 -50 14 -87 -5 -75 -5 3 -10 17 -10 30 0 34 -18 41
-22 8 -4 -31 -28 -44 -28 -14 0 11 -5 32 -11 48 -8 21 -12 24 -19 13 -12 -19
-14 -15 -28 53 -17 86 -57 166 -109 219 -26 26 -44 50 -42 53 3 3 27 -6 53
-20 59 -32 65 -31 35 1 -56 60 -171 94 -323 94 -55 0 -97 -3 -93 -6 3 -3 42
-10 86 -15 99 -11 177 -45 242 -106 84 -78 129 -184 129 -300 0 -95 41 -151
99 -136 12 3 21 1 21 -6 0 -12 -58 -29 -82 -23 -40 10 -57 45 -67 144 -5 53
-17 113 -26 131 -22 46 -80 113 -128 148 -64 47 -64 33 0 -28 85 -82 107 -129
108 -225 0 -62 -4 -82 -21 -104 -35 -48 -70 -67 -128 -72 -89 -7 -135 21 -202
124 -60 94 -113 136 -192 153 -50 10 -126 1 -145 -18 -6 -6 -17 -11 -24 -11
-11 0 -11 5 -3 20 12 22 1 27 -18 8 -9 -9 -12 -8 -12 5 0 20 -16 23 -24 5 -4
-7 -4 -2 -2 12 5 25 5 25 -20 -5 -40 -50 -47 -146 -11 -153 10 -2 49 15 86 38
38 22 85 43 104 47 46 7 139 -22 168 -53 27 -29 23 -30 -32 -4 -63 28 -134 26
-189 -5 -106 -60 -148 -77 -169 -65 -12 6 -24 23 -28 37 -10 41 13 132 47 186
16 27 30 51 30 54 0 14 -54 -45 -77 -85 -38 -64 -45 -112 -33 -205 14 -97 17
-103 39 -83 16 15 19 14 37 -7 11 -12 39 -53 61 -92 40 -68 107 -144 118 -133
3 3 -4 17 -15 31 -35 44 -71 134 -77 192 -3 30 -3 55 0 55 4 0 18 -22 31 -49
45 -87 147 -152 235 -150 35 1 34 2 -18 18 -69 21 -137 80 -167 145 -13 28
-20 52 -15 54 4 1 25 -14 47 -34 21 -20 53 -43 71 -50 46 -20 130 -17 179 5
36 16 43 17 68 4 23 -12 25 -17 15 -29 -7 -9 -31 -25 -53 -37 -53 -27 -25 -36
44 -13 66 22 68 21 35 -14 -40 -42 -23 -50 36 -17 55 30 67 20 16 -15 -56 -38
-192 -168 -176 -168 21 0 56 25 124 90 33 31 76 66 95 78 60 36 190 83 218 80
23 -3 14 -10 -58 -46 -46 -24 -99 -54 -116 -67 -51 -39 -145 -127 -140 -132 6
-6 81 33 134 69 46 32 66 33 32 3 -21 -19 -26 -35 -11 -35 4 0 39 27 77 61 96
85 134 103 198 94 64 -9 115 -9 187 0 69 9 89 -1 188 -89 40 -36 80 -66 89
-66 12 0 10 6 -8 25 -34 37 -20 38 30 4 60 -40 119 -71 130 -67 22 7 -158 149
-241 190 -48 24 -88 46 -88 51 -3 24 128 -18 230 -75 35 -21 83 -59 106 -86
40 -47 102 -87 124 -80 6 2 -9 18 -33 36 -24 17 -77 64 -118 103 l-75 71 52
-26 c69 -34 83 -33 48 4 -16 16 -26 32 -23 35 3 4 29 -1 56 -10 71 -23 84 -14
29 18 -52 31 -59 49 -24 64 16 7 32 5 62 -8 22 -10 61 -19 87 -19 53 0 78 -18
78 -56 0 -16 -8 -27 -22 -33 -13 -5 -34 -14 -48 -20 -23 -10 -22 -11 15 -9 22
1 46 -1 53 -6 18 -11 14 -44 -7 -56 -25 -13 -112 -13 -145 0 -40 15 -31 -5 12
-26 20 -10 57 -18 82 -19 41 -1 45 -3 48 -28 4 -30 22 -27 22 4 0 10 25 46 55
79 57 61 77 105 27 57 -35 -34 -52 -34 -52 -2 0 14 5 25 10 25 21 0 104 86
122 128 39 88 48 24 12 -89 -8 -25 -28 -67 -44 -93 -17 -26 -30 -50 -30 -53 0
-21 89 83 127 149 57 96 67 106 92 84 17 -16 19 -13 30 53 6 39 11 85 11 104
0 57 -30 125 -77 175 -33 35 -40 39 -27 17 41 -68 57 -113 62 -171 4 -58 3
-63 -21 -79 -28 -18 -27 -19 -162 55 -54 29 -66 32 -122 27 -33 -2 -72 -12
-84 -21 -27 -18 -39 -20 -39 -6 0 5 21 22 47 37 75 44 139 40 229 -14 39 -24
80 -43 92 -43 28 0 37 34 23 86 -13 47 -51 108 -51 82 0 -11 -5 -15 -15 -12
-11 5 -13 2 -9 -10 7 -19 -7 -21 -25 -3 -11 10 -12 8 -6 -10 8 -28 4 -28 -45
-3 -28 14 -40 27 -40 43 0 12 -7 31 -15 41 -8 11 -15 37 -15 57 0 55 -17 56
-23 1 -4 -34 -1 -52 10 -64 18 -20 14 -52 -7 -56 -18 -3 -52 52 -44 72 4 10
-5 16 -25 21 -21 4 -31 13 -31 24 0 10 -11 34 -25 54 -14 21 -20 39 -14 43 5
3 42 8 82 11 118 9 247 -44 329 -136 50 -55 78 -126 78 -193 0 -46 13 -71 23
-45 41 106 26 443 -26 582 -8 22 -22 61 -32 88 -20 57 -35 61 -35 10 -1 -36
-1 -37 -16 -18 -12 15 -14 34 -11 72 3 29 8 57 12 63 9 15 31 -4 62 -53 13
-22 27 -37 29 -34 10 10 -16 83 -42 117 -14 19 -38 58 -52 85 l-27 50 -5 -85
c-5 -77 -7 -85 -26 -88 -13 -2 -38 12 -68 40 -54 49 -65 83 -66 191 0 43 -4
66 -10 62 -5 -3 -10 -19 -10 -35 0 -16 -4 -32 -10 -35 -6 -4 -10 28 -10 89 0
52 -5 107 -12 123 -14 34 -14 33 -23 -119 -7 -113 -19 -131 -31 -50 -7 45 -8
46 -18 20 -24 -66 -36 -14 -23 97 14 125 27 186 42 192 8 2 28 -5 46 -18 28
-20 31 -26 26 -61 -5 -34 -3 -39 11 -35 9 2 23 6 30 8 8 2 24 -9 35 -24 19
-25 22 -41 22 -125 -1 -53 -5 -127 -9 -163 -8 -62 -7 -67 15 -82 29 -21 35
-15 15 16 -15 23 -14 31 19 138 41 131 40 165 -7 230 -27 37 -28 43 -14 57 12
12 18 13 30 3 39 -32 56 -80 71 -195 16 -121 35 -173 89 -245 14 -19 32 -55
40 -80 20 -60 35 -187 29 -242 -3 -25 4 -87 16 -143 24 -116 27 -211 7 -316
-22 -119 -28 -229 -16 -310 16 -112 30 -111 30 2 0 53 4 99 10 103 10 6 51
-121 75 -233 22 -106 20 -287 -5 -390 -36 -152 -98 -261 -285 -513 -59 -79
-112 -153 -118 -166 -13 -28 -27 -30 -27 -3 0 44 62 152 169 294 116 154 179
269 207 371 20 77 30 256 16 281 -10 16 -11 13 -12 -20 0 -33 -2 -37 -15 -26
-13 11 -15 5 -15 -46 -1 -56 -2 -58 -16 -39 -15 19 -16 16 -9 -40 6 -53 5 -58
-9 -46 -9 7 -16 20 -16 27 0 8 -4 14 -9 14 -5 0 -5 -17 0 -42 14 -61 7 -80
-15 -40 -22 43 -26 38 -16 -18 5 -25 9 -53 10 -62 0 -30 -17 -20 -34 20 -15
37 -15 36 -9 -45 4 -56 2 -83 -5 -83 -5 0 -13 18 -17 39 -4 22 -12 44 -19 50
-9 7 -11 -7 -8 -61 5 -77 -11 -89 -23 -18 -4 22 -11 40 -17 40 -7 0 -8 -15 -4
-42 7 -46 -2 -130 -14 -123 -4 2 -10 27 -14 55 -10 73 -26 61 -26 -19 0 -79
-8 -111 -21 -89 -5 7 -9 25 -9 41 0 53 -18 26 -25 -39 -4 -42 -11 -64 -18 -61
-20 6 -25 66 -10 124 8 30 12 58 9 61 -10 9 -66 -122 -77 -183 -20 -100 -31
-90 -24 20 6 90 -2 190 -21 253 -11 39 13 24 32 -20 15 -37 18 -40 22 -20 2
13 -2 37 -9 53 -16 41 -6 46 25 12 l26 -28 0 38 c0 24 5 37 13 37 21 0 175
163 191 201 8 19 19 70 25 113 12 85 19 99 63 122 31 16 36 29 13 38 -9 3 -28
-6 -46 -22 -25 -22 -34 -44 -53 -123 -12 -53 -33 -112 -45 -132 -43 -70 -165
-149 -250 -163 -51 -8 -73 6 -126 79 -22 31 -43 57 -48 57 -4 0 13 -41 38 -90
25 -50 53 -118 61 -151 8 -32 23 -78 34 -102 20 -48 38 -168 22 -152 -6 6 -40
84 -76 175 -90 224 -100 235 -440 472 -69 48 -125 69 -71 26 l27 -21 -22 -17
c-22 -16 -22 -17 27 -35 58 -22 100 -48 85 -53 -6 -2 -43 8 -82 22 -39 14 -88
26 -108 26 l-37 -1 60 -28 c33 -16 75 -40 94 -55 19 -14 44 -26 55 -26 20 0
20 0 0 14 -29 22 -12 28 42 16 61 -14 115 -45 183 -106 73 -65 88 -93 169
-300 65 -166 101 -286 118 -391 4 -24 10 -43 14 -43 5 0 11 19 15 43 8 46 30
95 36 81 10 -21 -3 -294 -14 -294 -6 0 -26 14 -44 32 -40 39 -44 20 -6 -29 21
-28 28 -49 31 -99 5 -67 -6 -83 -26 -39 -18 38 -40 31 -53 -17 -25 -94 -42
-128 -81 -163 -74 -67 -153 -82 -247 -46 -143 54 -422 307 -447 404 -3 15 -9
27 -13 27 -4 0 -18 -24 -32 -52 -43 -94 -265 -295 -403 -365 -61 -31 -152 -41
-198 -22 -81 32 -141 105 -154 186 -3 24 -12 50 -19 59 -16 22 -45 11 -45 -17
0 -40 -25 -12 -28 32 -2 36 4 55 33 103 19 32 34 61 32 62 -2 2 -22 -12 -45
-32 -23 -19 -43 -32 -43 -27 -1 4 -2 75 -3 156 -1 116 1 144 11 131 6 -9 14
-32 18 -53 9 -56 22 -71 30 -35 45 220 166 555 232 646 19 26 64 70 101 98 63
47 89 59 172 75 l35 7 -19 -21 c-24 -27 -2 -29 34 -4 14 10 57 35 95 55 63 34
67 37 39 38 -18 0 -66 -12 -108 -26 -102 -34 -119 -24 -29 17 70 33 90 49 58
49 -21 0 -19 10 11 41 40 42 3 28 -79 -29 -351 -246 -355 -250 -462 -530 -26
-67 -51 -122 -56 -122 -5 0 -9 3 -9 8 0 21 30 142 43 172 8 19 20 59 27 87 6
29 32 92 56 139 25 48 43 89 40 91 -2 3 -23 -21 -45 -51 -73 -99 -107 -105
-228 -46 -114 56 -177 142 -198 270 -4 25 -16 62 -27 83 -25 50 -78 71 -78 32
0 -7 9 -17 20 -20 34 -11 60 -46 60 -81 0 -46 20 -133 38 -169 20 -39 151
-175 180 -186 16 -6 22 -17 22 -39 l0 -31 26 28 26 28 -6 -25 c-3 -14 -8 -43
-11 -65 l-5 -40 18 38 c11 21 25 44 32 50 10 10 11 5 6 -23 -20 -96 -25 -163
-19 -247 3 -51 3 -93 0 -93 -3 0 -13 33 -22 73 -9 39 -28 97 -43 127 -31 66
-31 65 -37 58 -3 -2 2 -28 11 -57 15 -53 12 -131 -6 -131 -11 0 -17 21 -25 89
-7 55 -25 54 -25 -1 0 -15 -4 -29 -9 -33 -10 -6 -19 45 -24 130 l-2 50 -15
-62 c-7 -34 -17 -60 -22 -57 -4 3 -8 44 -9 92 l-1 87 -17 -54 c-22 -68 -36
-52 -27 31 9 73 -7 71 -24 -3 -10 -43 -14 -49 -23 -34 -6 12 -6 40 1 83 6 37
9 68 7 71 -3 2 -13 -15 -23 -40 l-17 -44 -5 65 c-5 60 -7 63 -18 40 -11 -22
-12 -18 -8 34 l5 60 -18 -28 c-23 -35 -33 -22 -21 30 13 53 11 75 -2 47 -20
-43 -31 -25 -25 40 6 53 5 59 -7 45 -20 -27 -26 -22 -27 20 -1 36 -2 36 -12
-13 -13 -65 3 -195 37 -296 33 -99 78 -176 197 -335 96 -127 174 -268 167
-302 -2 -11 -18 4 -48 48 -24 36 -85 120 -136 187 -143 190 -213 318 -248 453
-24 91 -31 253 -17 347 13 79 64 273 81 302 14 26 19 -1 22 -114 l3 -100 14
45 c20 60 18 245 -2 330 -27 111 -30 196 -12 290 10 47 21 150 25 230 9 165
25 226 76 300 54 78 71 127 83 239 6 56 18 116 27 133 9 17 47 61 84 97 80 78
126 140 136 184 15 70 76 157 111 157 7 0 22 -14 32 -31z m1341 -1234 c7 -8 9
-26 5 -43 -5 -24 -2 -30 19 -40 26 -12 61 -66 52 -81 -3 -5 -18 -11 -33 -14
-16 -4 -42 -15 -59 -26 -36 -22 -110 -109 -101 -118 4 -3 26 12 51 35 77 71
140 93 174 61 32 -29 28 -64 -10 -87 -45 -28 -82 -68 -131 -143 -55 -84 -107
-113 -189 -106 -102 9 -152 66 -152 172 0 45 6 74 26 115 29 60 42 76 106 133
56 49 27 48 -36 -3 -95 -74 -142 -169 -142 -282 0 -33 -7 -72 -15 -88 -22 -43
-91 -57 -124 -25 -11 11 -7 13 23 12 60 -2 77 24 87 137 5 53 19 121 30 152
54 143 206 251 355 253 34 1 56 -4 64 -14z m-1347 -452 c44 -31 68 -76 51 -93
-6 -6 -26 -13 -45 -16 -61 -10 -170 84 -153 131 11 27 95 15 147 -22z m1575
10 c5 -32 -75 -110 -122 -119 -39 -7 -86 15 -86 39 0 19 71 83 105 95 17 6 46
10 65 9 28 -2 36 -7 38 -24z m72 -57 c0 -27 -65 -136 -81 -136 -4 0 -10 13
-14 29 -5 25 0 35 37 70 39 37 58 49 58 37z m-2250 -920 c0 -8 -16 -20 -35
-26 -46 -15 -36 -30 12 -19 33 7 41 6 56 -12 9 -12 17 -25 17 -30 0 -5 -49 -9
-110 -9 -60 0 -110 -4 -110 -9 0 -10 194 -91 220 -91 10 0 22 9 25 20 8 26 35
26 35 0 0 -22 -37 -60 -59 -60 -22 0 -321 124 -321 133 0 6 46 29 210 104 35
16 60 16 60 -1z m2683 0 c18 -8 71 -33 120 -55 48 -22 87 -43 87 -48 0 -4 -70
-37 -156 -71 -163 -67 -193 -71 -215 -31 -15 29 6 52 25 27 7 -10 20 -18 29
-18 23 0 217 81 217 91 0 4 -46 8 -102 8 -56 1 -103 3 -105 5 -3 2 2 13 9 25
10 16 23 21 58 22 l45 1 -32 14 c-32 14 -40 24 -26 37 9 9 10 9 46 -7z m-2523
-411 c39 -20 65 -59 85 -129 20 -69 14 -114 -20 -146 -25 -23 -26 -24 -133
-11 -216 24 -282 34 -282 41 0 13 299 257 318 260 2 0 16 -7 32 -15z m2353 3
c29 -15 297 -240 297 -248 0 -7 -67 -17 -282 -41 -107 -13 -108 -12 -133 11
-34 32 -40 77 -20 146 20 70 40 101 80 125 36 22 31 22 58 7z m-1068 -400 c17
-9 53 -37 80 -63 l50 -46 -86 45 c-141 72 -223 70 -360 -10 -33 -20 -63 -34
-65 -31 -8 7 97 88 141 109 50 24 192 21 240 -4z m-1050 -16 c72 -44 135 -133
135 -190 0 -17 -9 -37 -22 -49 -25 -22 -385 -150 -395 -140 -3 4 3 26 15 49
11 24 46 102 77 173 32 72 67 140 78 153 25 27 71 29 112 4z m1942 -4 c11 -13
46 -81 78 -153 31 -71 66 -149 77 -172 11 -23 18 -46 16 -51 -5 -13 -388 124
-404 145 -19 26 -17 68 5 111 20 37 87 106 125 129 34 20 80 16 103 -9z m-919
-72 c48 -25 59 -52 33 -87 -20 -26 -20 -29 -4 -28 26 1 91 27 71 28 -26 1 -24
41 2 41 13 0 20 -7 20 -20 0 -18 4 -20 43 -13 37 5 40 4 29 -9 -23 -28 -128
-68 -207 -79 -120 -16 -236 0 -332 48 -93 46 -59 55 65 17 57 -18 74 -14 48
11 -36 37 -9 82 63 106 38 12 133 4 169 -15z m-590 -227 c90 -44 133 -104 118
-161 -4 -15 -68 -68 -173 -145 -91 -68 -168 -121 -171 -119 -6 7 39 378 50
407 20 56 88 63 176 18z m1106 20 c15 -7 30 -25 35 -43 11 -36 55 -396 49
-402 -2 -2 -79 51 -171 119 -105 77 -169 130 -173 145 -15 57 28 117 118 161
65 33 102 38 142 20z m-506 -96 c18 -9 40 -29 48 -44 14 -28 12 -35 -52 -187
-36 -86 -73 -174 -82 -194 -8 -21 -18 -38 -22 -38 -13 0 -170 364 -170 392 0
34 49 75 98 83 20 4 42 8 47 10 19 7 100 -7 133 -22z"/>
<path d="M1694 4529 c-26 -50 -79 -127 -117 -171 -134 -155 -139 -172 -85
-340 31 -98 31 -100 13 -130 -17 -30 -17 -30 4 -19 37 20 42 42 25 132 -10 50
-14 111 -11 151 4 60 9 74 44 120 43 57 115 114 132 104 6 -4 15 -24 20 -44
14 -57 34 -240 27 -257 -8 -22 -26 -19 -26 4 0 11 -4 23 -10 26 -6 4 -10 -9
-10 -33 0 -23 -6 -45 -15 -52 -13 -11 -15 -4 -16 51 -1 35 -4 93 -8 129 l-6
65 -14 -39 c-9 -27 -12 -61 -7 -110 7 -81 -7 -125 -19 -57 -11 64 -25 38 -25
-46 0 -57 -5 -88 -20 -119 -21 -43 -82 -94 -113 -94 -22 0 -31 39 -24 106 6
54 -6 82 -18 43 -4 -11 -26 -49 -50 -84 -42 -60 -69 -127 -57 -139 3 -3 21 17
40 45 23 35 37 48 44 41 13 -13 22 -94 14 -126 -10 -41 -26 -30 -26 17 -1 36
-2 39 -12 22 -44 -75 -108 -357 -108 -475 0 -52 13 -160 26 -222 10 -47 21
-31 26 35 12 147 103 251 269 308 64 21 127 22 249 3 35 -5 35 -5 10 10 -29
17 -154 40 -175 32 -8 -3 -17 -1 -20 5 -4 5 1 12 9 15 9 3 13 10 10 15 -3 5
-9 7 -14 4 -5 -3 -12 -1 -15 5 -4 6 11 18 34 28 42 17 57 38 21 29 -29 -7 -25
11 5 25 20 9 35 28 22 28 -17 0 -123 -43 -141 -57 -13 -10 -60 -47 -106 -82
-70 -54 -127 -120 -143 -165 -2 -6 -8 -8 -12 -4 -18 17 44 116 105 169 35 30
88 76 118 103 56 50 141 96 178 96 11 0 29 7 40 16 18 14 14 15 -46 10 -51 -5
-87 -17 -165 -56 -56 -28 -104 -50 -109 -50 -18 0 24 37 139 123 66 50 112 87
102 84 -11 -4 -31 -10 -45 -13 -26 -5 -27 -5 -7 11 11 9 63 40 115 68 102 54
109 69 16 37 -82 -28 -68 -4 30 47 76 40 83 56 15 32 -52 -18 -46 -4 16 36 47
29 52 35 28 30 -55 -12 -103 -49 -235 -179 -71 -71 -130 -126 -130 -122 0 18
64 97 134 165 42 41 76 78 76 82 0 5 30 32 66 60 71 56 71 55 40 134 -12 31
-15 85 -16 242 0 111 -3 208 -6 217 -12 33 -32 14 -80 -75z"/>
<path d="M2310 4000 c8 -6 36 -22 61 -35 25 -13 67 -40 93 -60 l47 -36 40 35
c22 18 68 49 102 67 76 40 61 49 -24 14 -78 -31 -172 -34 -227 -6 -44 22 -116
39 -92 21z"/>
<path d="M2045 3875 c-16 -9 -39 -24 -50 -34 -53 -48 -118 -81 -186 -97 -75
-18 -72 -30 5 -22 22 3 75 -1 116 -8 46 -8 107 -11 156 -7 45 3 95 2 110 -2
27 -7 24 -9 -31 -20 l-60 -12 55 0 c30 0 78 -8 105 -17 28 -10 81 -21 119 -25
50 -5 72 -13 82 -26 18 -24 18 -28 -5 -56 -28 -35 -105 -32 -201 10 -74 32
-164 56 -155 40 3 -4 22 -13 43 -20 20 -6 68 -27 107 -47 43 -21 87 -36 115
-37 25 -1 53 -3 62 -4 9 0 30 -15 47 -32 l32 -31 19 25 c23 29 67 45 123 45
23 0 69 16 122 41 46 22 96 43 110 47 14 3 27 10 30 15 11 16 -72 -5 -150 -38
-96 -42 -171 -49 -204 -19 -46 42 -15 86 60 86 27 0 78 10 112 21 35 12 88 21
122 22 47 0 53 2 30 7 -16 4 -46 8 -65 9 -34 2 -34 3 -10 13 15 6 62 8 113 5
48 -3 116 -1 150 5 34 7 95 11 135 9 39 -1 72 0 72 3 0 2 -26 10 -57 16 -83
16 -109 28 -180 82 -82 63 -104 71 -156 56 l-42 -12 52 -7 c53 -7 105 -33 138
-68 45 -50 -51 -68 -159 -30 -39 13 -69 18 -90 13 -27 -5 -146 -70 -146 -79 0
-6 55 12 88 29 40 21 41 6 2 -28 -37 -31 -84 -41 -153 -32 -61 8 -69 8 -162 1
-66 -6 -73 -5 -117 24 -27 17 -48 35 -48 41 0 6 4 9 8 6 23 -14 112 -45 107
-37 -9 16 -108 68 -141 75 -21 5 -49 0 -85 -14 -57 -21 -153 -27 -164 -10 -22
36 78 110 150 110 46 0 37 15 -15 25 -23 4 -45 0 -65 -10z"/>
<path d="M2477 3309 c-11 -6 -33 -8 -49 -5 -26 5 -29 4 -18 -9 17 -20 168 -21
195 -1 17 12 15 14 -25 13 -25 0 -54 3 -65 6 -11 4 -28 2 -38 -4z"/>
<path d="M1715 3250 c-26 -10 -10 -16 62 -24 63 -6 102 -25 171 -83 28 -25 52
-40 52 -35 0 19 -100 120 -134 136 -36 17 -117 20 -151 6z"/>
<path d="M2158 3173 c8 -14 9 -24 2 -28 -7 -4 -7 -13 0 -24 6 -12 5 -22 -1
-28 -8 -8 -7 -18 1 -33 11 -20 10 -22 -4 -17 -11 5 -16 1 -16 -13 0 -13 -5
-18 -15 -14 -11 5 -13 2 -9 -10 8 -20 -10 -21 -30 0 -15 14 -16 13 -16 -7 0
-21 -6 -18 -50 26 -27 27 -52 46 -55 43 -3 -3 13 -28 36 -56 62 -78 30 -62
-46 23 -64 71 -119 115 -144 115 -6 0 11 -21 37 -47 26 -27 69 -76 94 -110 38
-50 55 -64 88 -73 81 -22 162 14 180 80 17 62 -5 147 -46 181 -16 13 -16 12
-6 -8z"/>
<path d="M1292 2811 c-22 -71 -14 -92 39 -104 31 -8 40 -27 68 -144 23 -95 47
-147 87 -187 60 -60 174 -113 218 -102 21 5 126 130 126 151 0 4 -22 -13 -50
-39 -60 -56 -86 -61 -36 -6 20 22 36 43 36 46 0 6 -10 -1 -63 -43 -40 -32 -56
-29 -24 5 39 41 33 47 -16 17 -60 -35 -79 -31 -34 6 21 17 36 33 34 35 -2 2
-25 -7 -50 -22 -55 -30 -67 -12 -16 25 40 30 30 39 -14 12 -42 -26 -55 -27
-35 -3 8 9 19 23 23 31 10 18 -10 7 -42 -22 -29 -26 -30 -8 -2 27 25 32 14 34
-18 4 -27 -25 -31 -8 -8 32 24 42 16 47 -15 10 -34 -40 -40 -24 -15 37 19 44
13 54 -10 19 -20 -31 -39 -34 -31 -6 3 11 9 30 12 43 l7 22 -23 -20 -23 -20 6
45 c3 25 4 39 1 33 -10 -23 -24 -13 -24 16 0 21 -5 28 -17 27 -12 0 -19 7 -21
22 -3 18 -8 21 -29 16 -25 -7 -25 -6 -18 35 9 52 -8 54 -23 2z"/>
<path d="M3701 2813 c-1 -24 -5 -43 -11 -43 -5 0 -10 5 -10 11 0 8 -5 8 -15
-1 -8 -7 -15 -21 -15 -32 0 -14 -5 -18 -15 -14 -11 4 -15 -2 -15 -24 0 -32 -9
-37 -28 -18 -9 9 -9 2 -1 -26 13 -46 6 -55 -23 -30 -21 19 -21 19 -13 -1 13
-32 18 -65 10 -65 -4 0 -15 10 -26 23 -23 27 -24 12 -3 -38 19 -46 9 -59 -18
-22 -29 39 -41 33 -16 -8 27 -47 16 -56 -24 -19 l-31 29 22 -37 c24 -41 16
-51 -14 -18 -27 30 -40 24 -16 -7 28 -35 20 -40 -23 -13 -45 27 -46 20 -4 -19
43 -40 32 -47 -27 -16 -26 14 -49 24 -52 22 -2 -3 13 -19 34 -36 46 -38 28
-40 -35 -4 l-47 27 33 -37 c17 -21 32 -40 32 -43 0 -9 -51 25 -82 54 -42 38
-43 21 -2 -26 47 -56 29 -53 -35 4 -28 25 -51 42 -51 37 0 -12 102 -134 122
-147 24 -15 112 15 178 62 71 49 104 105 135 227 28 108 46 145 73 145 46 1
57 45 29 111 l-15 34 -1 -42z"/>
<path d="M1603 2723 c50 -96 165 -135 260 -87 35 19 36 37 1 24 -38 -15 -122
-12 -159 6 -18 8 -52 32 -75 51 l-42 37 15 -31z"/>
<path d="M2294 2667 c-67 -41 -185 -111 -250 -147 -34 -19 -73 -56 -114 -105
-34 -42 -59 -79 -57 -82 5 -5 76 44 130 89 29 25 30 26 8 21 -48 -12 -10 18
82 63 51 26 107 57 124 71 44 32 112 62 143 63 14 0 32 5 40 11 12 8 9 9 -12
5 -27 -6 -54 14 -30 22 16 5 15 22 0 21 -7 0 -36 -15 -64 -32z"/>
<path d="M2650 2685 c17 -21 3 -36 -28 -29 -15 4 -24 3 -20 -1 4 -4 31 -12 59
-16 36 -6 74 -22 121 -54 38 -25 93 -56 124 -70 30 -13 69 -34 86 -46 26 -19
28 -24 14 -29 -13 -4 2 -19 63 -63 45 -31 81 -54 81 -50 0 6 -31 44 -104 128
-25 30 -70 62 -125 92 -47 25 -111 62 -141 83 -92 62 -160 91 -130 55z"/>
<path d="M2440 2610 c-10 -7 9 -10 63 -10 50 0 76 4 72 10 -8 13 -115 13 -135
0z"/>
<path d="M2435 2379 c-118 -15 -244 -79 -291 -148 -78 -115 49 -268 195 -236
43 9 74 51 67 89 -13 64 -69 86 -113 44 -24 -22 -31 -11 -13 22 13 24 70 43
104 34 41 -10 74 -51 82 -100 3 -25 15 -55 25 -67 18 -21 19 -21 34 -3 8 10
19 42 25 71 12 56 28 77 74 95 36 13 89 -2 111 -33 23 -33 18 -41 -11 -18 -55
43 -114 15 -114 -55 0 -48 28 -75 83 -81 123 -14 232 96 198 200 -14 40 -80
106 -138 136 -83 42 -216 63 -318 50z m257 -58 c112 -43 187 -126 173 -191 -3
-16 -13 -35 -22 -42 -15 -12 -16 -9 -9 30 11 70 -28 123 -117 161 -61 26 -75
26 -52 1 33 -36 13 -52 -62 -48 l-67 3 -11 -47 c-13 -62 -22 -68 -30 -22 -13
78 -9 75 -87 72 -75 -3 -92 7 -62 36 23 23 13 28 -27 14 -95 -32 -146 -95
-136 -167 5 -41 5 -42 -14 -25 -12 11 -19 30 -19 56 0 70 93 147 223 183 75
22 244 14 319 -14z"/>
<path d="M2470 2310 c-11 -7 1 -10 40 -10 39 0 51 3 40 10 -8 5 -26 10 -40 10
-14 0 -32 -5 -40 -10z"/>
<path d="M2032 2310 c-41 -30 -132 -136 -132 -155 0 -5 -27 -67 -60 -137 -49
-101 -71 -167 -111 -323 -28 -108 -48 -199 -45 -202 3 -4 17 4 31 17 14 13 28
21 31 17 9 -8 -23 -112 -46 -150 -26 -42 -25 -46 7 -44 26 2 28 -1 38 -58 18
-96 34 -131 74 -168 75 -67 164 -73 273 -19 71 36 116 68 107 76 -3 4 -26 -3
-50 -13 -107 -48 -233 -45 -280 5 -25 27 -17 31 21 9 14 -8 34 -14 45 -15 13
0 1 11 -32 30 -45 26 -74 50 -60 50 3 0 28 -12 56 -26 27 -15 72 -28 98 -30
l48 -4 -60 22 c-78 29 -129 62 -156 99 -21 30 -12 41 12 13 22 -26 94 -72 125
-80 23 -5 16 2 -31 36 -58 40 -114 96 -115 113 0 5 18 -6 40 -23 41 -33 56
-28 19 6 -25 23 -79 113 -79 133 0 8 22 -9 49 -36 48 -51 127 -100 139 -88 4
4 -2 11 -13 18 -28 16 -115 98 -127 121 -9 16 -8 18 6 13 20 -8 21 7 0 23 -8
8 -20 22 -25 32 -9 17 -8 18 10 9 19 -10 18 -8 -6 39 -34 66 -24 74 15 11 37
-60 132 -134 132 -103 0 4 -16 18 -36 31 -20 14 -47 41 -60 60 -25 37 -33 64
-12 43 22 -22 29 -12 11 15 -12 18 -14 28 -6 30 8 3 1 21 -18 51 -16 25 -29
57 -29 71 0 21 6 16 33 -29 21 -37 50 -67 87 -92 l54 -36 1 -56 c0 -32 4 -55
10 -53 5 1 9 29 9 62 -1 52 -4 62 -23 71 -32 16 -100 84 -117 116 -17 34 -18
39 0 32 18 -7 27 29 15 68 -12 43 -4 47 16 8 23 -44 94 -120 112 -120 10 0 2
15 -22 41 -48 54 -85 134 -84 184 l1 40 18 -40 19 -40 -6 78 c-6 81 0 99 16
45 l9 -33 1 36 c1 19 8 44 16 55 14 18 14 17 15 -16 l1 -35 25 53 c15 30 45
69 72 92 26 21 58 49 72 60 l25 21 -25 -6 c-14 -4 -51 -24 -84 -46 -32 -22
-61 -37 -64 -35 -2 3 8 22 23 41 15 20 25 38 23 41 -3 2 -23 -9 -46 -26z"/>
<path d="M2810 2336 c0 -2 17 -15 38 -28 57 -39 120 -108 133 -145 13 -40 29
-43 29 -5 0 21 2 24 10 12 5 -8 10 -32 10 -53 0 -23 4 -36 10 -32 6 3 10 17
10 31 0 16 4 23 11 18 11 -6 8 -69 -6 -124 -4 -17 0 -14 15 13 11 20 23 37 27
37 11 0 -8 -86 -31 -135 -13 -27 -37 -65 -55 -82 -33 -34 -37 -43 -22 -43 20
0 73 55 101 104 29 49 40 44 20 -8 -6 -17 -6 -26 0 -26 6 0 10 -7 10 -16 0 -8
5 -12 10 -9 6 3 10 0 10 -8 0 -22 -52 -89 -94 -121 -39 -29 -43 -46 -6 -26 40
21 101 83 121 122 11 21 22 38 25 38 12 0 -8 -56 -33 -94 -17 -26 -21 -41 -14
-45 8 -5 7 -13 -4 -27 -19 -25 -19 -35 0 -28 34 14 11 -25 -51 -83 -55 -52
-62 -61 -37 -53 35 13 109 83 131 125 8 17 17 24 19 18 3 -7 -5 -28 -16 -47
-26 -41 -26 -47 -3 -39 13 5 10 -3 -11 -30 -17 -22 -22 -34 -12 -31 46 18 -12
-57 -86 -112 -27 -20 -48 -39 -45 -41 12 -12 98 42 139 86 25 27 48 47 51 44
8 -8 -33 -84 -71 -130 -41 -51 -37 -55 12 -12 19 17 35 26 35 20 0 -20 -74
-93 -125 -122 -27 -16 -42 -29 -32 -29 26 0 73 26 118 67 50 45 64 35 18 -13
-38 -40 -69 -58 -143 -85 l-51 -18 36 0 c22 -1 60 11 95 29 32 16 61 30 63 30
13 0 -30 -35 -63 -53 -28 -14 -36 -22 -24 -25 9 -2 31 4 48 13 30 16 31 16 21
-3 -30 -55 -173 -60 -290 -10 -24 10 -46 17 -48 14 -8 -8 63 -55 131 -87 59
-27 75 -31 125 -26 126 11 175 70 206 251 6 34 9 38 31 33 30 -5 30 0 -1 60
-25 51 -44 133 -29 133 4 0 18 -10 31 -22 13 -12 25 -20 27 -17 6 6 -89 367
-113 426 -11 29 -36 83 -54 120 -19 38 -38 79 -42 93 -13 45 -95 149 -141 181
-54 37 -65 33 -29 -10 36 -42 27 -57 -15 -26 -56 43 -130 77 -130 61z"/>
<path d="M2430 2000 c0 -5 -19 -19 -42 -31 -33 -17 -52 -20 -91 -15 l-50 5 19
-20 c30 -33 95 -66 144 -73 62 -9 71 -17 76 -67 15 -133 28 -145 39 -35 3 41
12 79 18 84 7 5 32 13 57 17 48 8 88 25 133 58 37 28 34 39 -7 31 -47 -8 -91
3 -126 33 -16 13 -35 21 -41 18 -16 -11 -3 -65 23 -92 l21 -23 -21 0 c-23 0
-56 27 -64 51 -4 10 -14 4 -35 -18 -17 -18 -38 -33 -47 -33 -22 0 -20 12 4 33
25 21 28 87 5 87 -8 0 -15 -4 -15 -10z"/>
<path d="M2271 1882 c9 -12 45 -43 80 -70 52 -38 68 -57 85 -100 30 -75 37
-76 29 -2 -10 93 -21 110 -80 130 -28 9 -69 27 -90 40 -38 24 -39 24 -24 2z"/>
<path d="M2711 1874 c-19 -14 -46 -27 -60 -30 -75 -16 -86 -32 -96 -136 l-5
-63 29 62 c24 50 42 71 88 104 55 40 104 90 86 88 -4 0 -23 -12 -42 -25z"/>
<path d="M2140 1756 c0 -9 7 -16 16 -16 17 0 14 22 -4 28 -7 2 -12 -3 -12 -12z"/>
<path d="M2160 1595 c33 -19 50 -18 26 0 -11 8 -27 15 -35 15 -10 -1 -7 -6 9
-15z"/>
<path d="M2830 1598 c-14 -6 -20 -12 -13 -15 7 -2 23 3 35 11 25 18 15 20 -22
4z"/>
<path d="M2024 1529 c-30 -29 -54 -56 -54 -62 0 -6 9 -2 21 9 17 16 22 16 29
4 6 -8 10 -22 10 -30 0 -8 9 -26 20 -40 19 -25 19 -24 0 38 l-18 63 30 35 c44
50 25 41 -38 -17z"/>
<path d="M2300 1560 c0 -5 5 -10 11 -10 5 0 7 5 4 10 -3 6 -8 10 -11 10 -2 0
-4 -4 -4 -10z"/>
<path d="M2700 1560 c0 -5 5 -10 11 -10 5 0 7 5 4 10 -3 6 -8 10 -11 10 -2 0
-4 -4 -4 -10z"/>
<path d="M2158 1448 c6 -6 18 -8 28 -6 14 3 12 5 -9 10 -19 3 -25 2 -19 -4z"/>
<path d="M2830 1450 c-21 -7 -21 -8 -5 -9 11 0 27 4 35 9 18 11 5 11 -30 0z"/>
<path d="M2875 1320 c-13 -6 -15 -9 -5 -9 8 0 22 4 30 9 18 12 2 12 -25 0z"/>
<path d="M2138 1313 c7 -3 16 -2 19 1 4 3 -2 6 -13 5 -11 0 -14 -3 -6 -6z"/>
<path d="M2828 3158 c-17 -24 -24 -50 -26 -100 -4 -66 -3 -69 29 -101 25 -25
47 -36 80 -41 79 -12 117 12 195 121 24 34 59 73 76 87 18 14 27 26 20 26 -27
0 -94 -53 -142 -114 -44 -56 -80 -87 -80 -70 0 3 16 25 35 48 50 62 43 65 -21
10 -48 -41 -55 -44 -49 -23 l7 24 -26 -24 -26 -24 0 22 c0 17 -4 22 -16 17
-12 -4 -14 -1 -9 14 5 15 3 18 -8 14 -12 -4 -14 8 -13 70 1 42 1 76 0 76 -2 0
-13 -15 -26 -32z"/>
<path d="M1241 1523 c-40 -32 -68 -59 -63 -61 8 -2 168 70 180 82 7 8 -18 36
-33 36 -6 0 -45 -26 -84 -57z"/>
<path d="M1330 1454 c-25 -8 -85 -25 -133 -37 -48 -13 -87 -28 -86 -33 2 -10
256 -45 276 -37 28 11 31 116 3 120 -8 0 -35 -5 -60 -13z"/>
<path d="M3650 1565 c-7 -9 -11 -18 -8 -21 12 -12 172 -84 180 -82 12 4 -131
118 -147 118 -7 0 -18 -7 -25 -15z"/>
<path d="M3597 1463 c-4 -3 -7 -26 -7 -49 0 -52 21 -77 59 -70 14 3 71 10 126
17 108 12 131 17 123 25 -5 4 -281 84 -292 84 -1 0 -6 -3 -9 -7z"/>
<path d="M1512 1173 c-15 -6 -105 -183 -97 -191 3 -3 15 8 27 24 13 16 47 57
76 92 45 53 50 63 35 69 -10 3 -20 7 -23 8 -3 1 -11 0 -18 -2z"/>
<path d="M1498 988 c-70 -62 -126 -114 -123 -116 7 -7 286 90 301 105 9 9 12
23 8 37 -9 31 -38 79 -49 82 -6 2 -67 -47 -137 -108z"/>
<path d="M3451 1169 l-23 -9 38 -43 c22 -23 57 -66 78 -94 22 -29 42 -51 44
-48 8 8 -82 186 -97 195 -9 4 -27 4 -40 -1z"/>
<path d="M3342 1073 c-27 -40 -35 -79 -18 -95 14 -15 294 -113 301 -106 5 4
-240 221 -254 226 -5 2 -18 -10 -29 -25z"/>
<path d="M1883 868 c-11 -14 -38 -196 -31 -204 3 -2 17 29 33 68 15 40 36 90
47 111 l18 37 -29 0 c-16 0 -33 -6 -38 -12z"/>
<path d="M1987 788 c-77 -123 -139 -230 -134 -234 7 -7 245 167 252 184 9 25
-45 102 -71 102 -8 0 -28 -24 -47 -52z"/>
<path d="M3068 843 c11 -21 31 -71 47 -111 15 -40 29 -71 32 -68 8 7 -19 190
-30 204 -5 6 -22 12 -38 12 l-29 0 18 -37z"/>
<path d="M2928 813 c-29 -32 -41 -62 -30 -80 6 -9 212 -163 251 -187 17 -11
-3 26 -98 179 -37 61 -74 111 -82 113 -8 1 -26 -10 -41 -25z"/>
<path d="M2423 785 c-56 -24 -56 -38 0 -167 28 -65 52 -116 55 -114 2 2 -2 47
-8 100 -12 93 -11 143 5 179 9 21 -7 22 -52 2z"/>
<path d="M2540 793 c0 -5 4 -22 9 -40 8 -29 0 -147 -15 -215 -3 -16 -1 -28 4
-28 10 0 102 213 102 236 0 7 -10 20 -22 28 -28 17 -78 29 -78 19z"/>
</g>
</svg>
