<?xml version="1.0" standalone="no"?>
<!DOCTYPE svg PUBLIC "-//W3C//DTD SVG 20010904//EN"
 "http://www.w3.org/TR/2001/REC-SVG-20010904/DTD/svg10.dtd">
<svg version="1.0" xmlns="http://www.w3.org/2000/svg"
 width="500.000000pt" height="571.000000pt" viewBox="0 0 500.000000 571.000000"
 preserveAspectRatio="xMidYMid meet">

<g transform="translate(0.000000,571.000000) scale(0.100000,-0.100000)"
fill="#000000" stroke="none">
<path d="M2516 5364 c-33 -8 -84 -28 -114 -44 -58 -32 -93 -37 -137 -20 -34
13 -144 -4 -202 -32 -51 -23 -74 -59 -104 -158 -17 -58 -32 -86 -69 -127 -65
-71 -80 -107 -80 -191 0 -68 1 -71 48 -128 53 -66 132 -144 145 -144 5 0 7 10
4 23 -3 12 -9 34 -12 50 -7 26 -6 27 30 27 33 0 47 -9 108 -67 39 -36 73 -61
74 -56 2 6 -3 38 -11 71 -19 71 -19 72 -6 72 6 0 30 9 52 20 54 26 70 13 43
-33 -13 -21 -19 -51 -20 -89 0 -54 -2 -57 -33 -72 -75 -36 -143 -32 -427 28
-228 49 -334 45 -463 -16 -72 -34 -80 -49 -9 -18 38 17 143 36 185 33 6 0 32
-1 57 -2 45 -1 65 -21 22 -21 -27 0 -139 -53 -156 -74 -7 -9 11 -5 47 10 116
47 219 51 444 18 135 -19 208 -18 280 7 84 28 102 2 39 -55 -20 -18 -21 -18
-40 5 l-20 24 -1 -32 c0 -31 -2 -33 -35 -33 -28 0 -37 5 -50 30 -18 35 -35 31
-35 -7 0 -14 -7 -31 -15 -37 -8 -6 -18 -25 -21 -43 -5 -27 -1 -37 23 -62 45
-44 127 -65 258 -66 147 0 179 15 300 143 50 53 137 142 194 200 l103 104 28
-27 c16 -15 34 -40 40 -56 9 -20 23 -32 44 -37 26 -7 34 -16 48 -57 12 -38 22
-51 38 -53 21 -3 22 -7 16 -52 -5 -39 -3 -51 9 -58 15 -8 15 -14 1 -68 -8 -32
-14 -68 -13 -78 1 -12 -14 -32 -43 -54 -25 -19 -44 -41 -43 -49 1 -10 -4 -12
-15 -7 -66 28 -246 87 -304 100 -88 20 -306 15 -382 -9 -46 -15 -54 -15 -120
4 -166 46 -303 63 -501 64 -168 0 -199 -3 -268 -23 -131 -38 -206 -82 -315
-186 -155 -148 -232 -332 -232 -551 0 -198 50 -332 171 -460 54 -56 157 -132
201 -147 4 -2 12 -48 18 -103 14 -127 26 -172 49 -187 18 -11 16 -14 -20 -40
-76 -55 -139 -179 -139 -274 0 -62 35 -147 86 -209 52 -65 61 -93 40 -133 -9
-18 -15 -54 -15 -93 1 -39 -9 -103 -25 -163 -14 -54 -26 -108 -26 -119 0 -29
83 -106 156 -144 90 -48 174 -67 259 -59 38 4 171 13 295 20 l225 12 84 38
c79 36 89 38 158 34 40 -3 76 -8 80 -12 10 -10 -42 -51 -102 -81 -27 -13 -142
-47 -255 -74 -226 -55 -284 -76 -346 -126 -115 -94 -94 -237 66 -450 103 -137
125 -243 76 -368 -36 -94 -37 -97 -26 -118 17 -31 47 -22 102 29 73 68 145
174 157 232 19 88 -14 195 -98 318 -53 79 -57 99 -29 142 34 51 77 67 213 80
247 23 416 66 509 128 26 18 58 32 71 32 34 0 53 24 60 75 5 32 14 49 32 60
23 15 24 21 18 62 -5 35 -3 49 11 64 17 19 17 22 0 75 -13 42 -15 59 -6 69 9
10 5 23 -16 56 -14 23 -27 54 -28 69 -1 14 -14 42 -28 61 -23 29 -26 40 -19
69 12 55 30 82 49 76 41 -13 129 -26 178 -26 131 0 231 42 391 163 l110 84
107 7 c130 8 276 44 358 88 184 98 274 262 285 523 4 90 1 137 -11 187 -46
197 -201 368 -417 459 -41 17 -83 39 -94 49 -11 10 -42 32 -69 49 -29 18 -63
52 -84 83 -19 29 -52 74 -73 99 l-38 46 26 24 c90 83 186 253 225 399 30 114
32 328 4 440 -42 166 -117 315 -233 460 -113 141 -264 235 -454 283 -52 13
-118 36 -147 51 -123 62 -317 84 -456 50z m282 -20 c42 -8 106 -29 142 -46
l65 -31 -95 -23 c-229 -58 -394 -136 -572 -271 -84 -64 -163 -98 -194 -84 -13
6 -24 16 -24 23 0 15 146 219 221 311 29 34 70 72 93 83 35 19 64 27 171 48
45 9 120 5 193 -10z m-578 -93 c-13 -11 -43 -22 -65 -25 -56 -9 -81 -26 -37
-26 l33 0 -53 -43 c-48 -40 -53 -42 -58 -24 -5 17 -9 13 -22 -21 -24 -62 -40
-52 -18 12 25 74 37 93 63 108 29 15 114 36 152 37 l30 1 -25 -19z m63 -73
c-32 -41 -76 -100 -98 -131 -41 -58 -100 -99 -162 -112 -28 -6 -34 -3 -44 19
-6 13 -9 31 -6 40 7 19 172 159 244 208 48 33 111 60 121 52 2 -1 -23 -36 -55
-76z m787 47 c10 -12 9 -20 -4 -40 -9 -14 -22 -25 -28 -25 -9 0 -9 3 0 12 17
17 15 48 -2 48 -32 0 -153 -31 -181 -47 -30 -16 -30 -16 -12 4 10 11 44 28 75
38 31 9 62 18 67 20 27 9 74 3 85 -10z m111 -17 c44 -13 54 -33 12 -21 -16 4
-40 8 -54 8 -17 0 -25 4 -22 13 6 15 15 15 64 0z m-377 -37 c9 -14 -17 -84
-33 -89 -11 -4 -10 1 2 19 19 27 22 59 6 59 -33 0 -95 -27 -120 -53 -16 -16
-29 -24 -29 -18 0 43 154 115 174 82z m509 -18 c29 -14 47 -28 40 -30 -6 -2
-30 5 -53 17 -23 12 -48 19 -56 16 -8 -3 -14 1 -14 9 0 22 24 18 83 -12z
m-160 -24 c62 -13 83 -29 72 -56 -6 -16 -8 -16 -15 4 -15 38 -109 53 -174 27
-14 -5 -17 -4 -12 5 8 13 42 29 62 30 6 1 36 -4 67 -10z m-547 -51 c-51 -115
-91 -187 -103 -183 -7 2 -28 -2 -47 -10 -20 -8 -50 -15 -68 -14 l-33 1 40 13
c22 8 33 14 25 14 -8 1 3 11 25 24 22 12 50 40 63 62 22 38 23 39 18 10 -5
-27 -3 -26 13 9 15 30 20 35 23 20 3 -12 10 2 21 38 14 48 23 60 44 67 2 1 -8
-23 -21 -51z m393 -3 c3 -18 2 -18 -14 -1 -31 31 -132 -7 -179 -66 -14 -18
-26 -27 -26 -20 0 27 66 84 119 102 59 20 94 15 100 -15z m411 3 c0 -28 57
-83 73 -70 14 12 60 -37 124 -133 70 -105 95 -153 83 -160 -7 -4 -17 -2 -23 4
-17 17 -27 13 -27 -12 0 -26 28 -70 40 -62 4 3 15 -6 24 -20 9 -14 23 -25 30
-25 13 0 26 -37 45 -126 7 -33 5 -45 -10 -63 -28 -34 -26 -115 2 -135 20 -14
21 -21 15 -83 -5 -54 -12 -73 -31 -91 -30 -27 -42 -69 -27 -92 21 -34 -70
-193 -171 -297 -23 -24 -45 -43 -50 -43 -5 0 -6 15 -3 34 5 26 3 35 -9 40 -20
7 -55 -10 -55 -28 0 -7 -9 -21 -20 -31 -26 -24 -25 -54 1 -64 21 -7 20 -9 -12
-28 -49 -31 -181 -93 -196 -93 -20 0 -15 38 6 45 28 9 36 37 14 53 -23 17 -63
7 -86 -21 -11 -12 -33 -26 -50 -32 -40 -13 -56 -39 -40 -64 10 -17 8 -19 -19
-25 -46 -9 -98 -7 -98 4 0 5 -11 17 -24 25 -27 18 -76 6 -76 -20 0 -22 -65
-19 -222 10 -168 31 -397 94 -513 140 -50 20 -148 70 -220 110 -172 98 -229
123 -320 142 -93 19 -170 8 -262 -37 -72 -36 -153 -118 -191 -197 -14 -29 -29
-53 -33 -53 -4 0 -10 11 -13 25 -5 18 -13 25 -30 25 -12 0 -26 -3 -30 -7 -3
-4 -15 -7 -26 -8 -22 -2 -21 6 6 72 10 22 21 33 35 33 12 0 39 18 60 39 28 27
45 37 59 34 29 -8 72 24 68 50 -2 18 -10 22 -36 22 -28 0 -32 3 -32 27 0 63
201 192 350 225 100 21 329 21 475 -1 133 -20 145 -24 145 -40 0 -35 69 -56
95 -30 16 17 22 16 119 -16 149 -48 281 -109 398 -183 212 -132 326 -177 455
-177 120 0 245 50 338 136 40 36 51 42 57 29 5 -8 15 -15 22 -15 17 0 76 66
76 85 0 7 3 20 6 28 3 8 -2 22 -11 31 -15 15 -14 21 10 83 15 38 34 72 42 76
8 5 18 18 24 30 5 12 14 29 21 38 15 22 3 53 -20 47 -17 -5 -18 3 -18 88 0 66
4 95 13 99 28 10 0 125 -31 125 -8 0 -19 15 -26 34 -6 18 -26 59 -45 91 -19
32 -35 65 -35 74 0 10 -6 26 -14 37 -8 10 -12 29 -10 40 11 44 -59 131 -96
119 -10 -3 -23 1 -30 10 -18 21 -40 19 -40 -5 0 -23 33 -60 55 -60 8 0 19 -9
25 -20 8 -16 8 -20 -3 -20 -24 0 -122 64 -122 79 0 8 -9 19 -20 25 -10 6 -27
20 -36 31 -14 17 -20 18 -43 7 -32 -14 -33 -30 -3 -42 15 -7 6 -8 -33 -3 -30
3 -57 7 -58 9 -8 6 53 39 102 56 62 21 39 24 -30 3 l-49 -14 25 19 c14 11 42
25 63 32 46 14 42 23 -6 10 -31 -9 -34 -8 -30 9 4 15 15 19 52 20 25 0 55 4
66 8 27 11 45 3 45 -21z m-608 -20 c-16 -17 -35 -27 -41 -24 -6 4 2 18 22 36
42 37 58 27 19 -12z m-310 -67 c-35 -48 -80 -71 -136 -70 -35 2 -42 3 -21 7
25 4 27 5 11 11 -18 7 -15 11 19 34 l40 27 18 -22 19 -23 -6 32 c-4 25 -1 34
19 47 22 15 25 14 34 -2 9 -15 11 -14 12 8 l2 25 4 -24 c3 -14 -3 -35 -15 -50z
m619 29 c10 -6 19 -17 19 -25 0 -19 -16 -19 -23 -1 -8 21 -70 30 -111 16 -19
-6 -44 -23 -55 -38 -19 -26 -31 -13 -13 15 23 37 137 57 183 33z m59 -10 c-8
-5 -18 -6 -24 -3 -5 4 -1 10 10 13 24 9 34 2 14 -10z m-412 -26 c2 -18 -3 -36
-12 -43 -13 -11 -13 -9 -3 18 16 43 0 57 -44 37 -63 -27 -130 -45 -119 -31 6
7 30 18 53 24 23 6 49 15 57 21 8 6 26 9 40 8 20 -2 26 -9 28 -34z m142 -14
c0 -5 -4 -10 -10 -10 -5 0 -10 5 -10 10 0 6 5 10 10 10 6 0 10 -4 10 -10z
m-939 -27 c2 -34 -3 -55 -22 -96 l-19 -42 5 35 c4 19 9 50 12 68 3 18 1 32 -5
32 -13 0 -62 -65 -73 -98 -8 -24 -9 -24 -4 6 10 67 103 149 106 95z m849 -1
c0 -8 -43 -32 -56 -32 -2 0 1 9 8 20 13 20 48 28 48 12z m75 -2 c7 -12 -34
-84 -43 -75 -3 3 0 11 6 17 7 7 12 21 12 32 0 19 -1 18 -24 -4 -28 -26 -84
-39 -171 -40 -65 0 -76 -4 -93 -35 -11 -20 -11 -19 -12 2 0 32 25 41 132 51
77 7 102 14 134 35 43 30 50 32 59 17z m-782 -42 c8 -12 7 -24 -3 -45 -8 -15
-16 -32 -19 -38 -2 -5 12 5 33 23 41 35 38 34 60 26 18 -7 22 -49 6 -59 -6 -4
-10 5 -10 19 0 33 -20 33 -50 1 -15 -16 -30 -23 -41 -20 -10 3 -20 1 -24 -5
-3 -5 -21 -17 -38 -26 l-32 -15 30 23 c77 59 99 112 51 124 -37 9 -77 -16
-103 -65 -13 -24 -23 -39 -23 -32 0 21 39 90 57 100 27 16 94 9 106 -11z m927
2 c12 -9 8 -17 -27 -49 -24 -21 -53 -41 -65 -44 -22 -5 -22 -5 2 11 49 34 80
64 74 73 -9 15 -83 10 -111 -8 -26 -17 -26 -17 -14 5 10 19 20 22 69 22 31 0
64 -5 72 -10z m345 -36 c197 -96 315 -297 315 -531 0 -138 -47 -317 -101 -383
-19 -24 -19 -24 1 18 24 50 60 182 60 222 0 15 7 33 15 40 20 17 20 128 -1
200 -8 30 -16 67 -18 82 -3 32 -51 105 -78 119 -10 5 -18 20 -18 33 0 23 -59
86 -80 86 -4 0 -26 17 -48 38 -36 34 -95 62 -134 62 -7 0 -31 9 -53 20 -23 12
-60 20 -90 21 -38 0 -45 3 -30 10 11 5 56 7 100 6 71 -3 91 -8 160 -43z
m-1100 16 c3 -6 -5 -10 -19 -10 -14 0 -28 -4 -31 -10 -3 -5 -12 -10 -18 -10
-16 1 32 40 49 40 7 0 16 -4 19 -10z m265 -39 c0 -42 -31 -91 -57 -91 -11 0
-8 6 10 20 25 20 42 63 32 80 -6 10 -50 -3 -120 -36 -27 -12 -69 -29 -93 -37
-36 -13 -41 -13 -31 -1 6 8 16 14 22 14 6 0 45 15 87 34 70 31 125 52 143 55
4 1 7 -16 7 -38z m520 -18 c-9 -17 -47 -44 -98 -71 -68 -36 -85 -42 -98 -32
-8 7 -12 15 -9 18 2 3 11 0 18 -6 11 -9 31 -1 93 36 66 39 80 52 82 76 3 21 6
26 15 17 9 -9 8 -18 -3 -38z m-705 27 c4 -7 -2 -9 -19 -4 -16 4 -32 1 -41 -6
-15 -12 -22 0 -8 13 10 11 61 8 68 -3z m838 -1 c21 -5 37 -16 37 -24 0 -21
-74 -91 -144 -137 -74 -47 -92 -49 -40 -3 21 19 31 32 21 29 -15 -6 -14 -1 7
30 14 21 28 46 31 57 5 14 16 19 41 19 21 0 33 4 29 10 -3 6 -17 10 -31 10
-13 0 -24 5 -24 10 0 13 25 13 73 -1z m-958 -29 c-28 -12 -37 -12 -30 0 3 6
16 10 28 9 21 0 21 -1 2 -9z m1123 -27 c18 -9 34 -19 37 -23 8 -13 -65 -89
-129 -135 -64 -45 -169 -99 -217 -110 -22 -6 -29 -1 -47 29 -24 41 -12 58 20
29 21 -18 21 -18 10 4 -11 19 -8 24 33 47 25 14 52 23 61 19 17 -6 44 14 44
34 0 7 19 32 43 54 40 39 44 41 92 36 49 -5 49 -5 20 8 -16 8 -36 14 -42 15
-7 0 -13 5 -13 10 0 12 41 4 88 -17z m-1467 -26 c15 -12 30 -34 33 -49 8 -36
-2 -36 -15 0 -5 15 -18 33 -29 40 -18 11 -20 10 -21 -10 0 -22 -1 -22 -8 -3
-8 20 -4 45 8 45 3 0 18 -10 32 -23z m359 8 c0 -17 -27 -75 -35 -75 -2 0 0 12
5 26 6 14 10 29 10 33 0 16 -51 -2 -66 -23 -15 -20 -15 -20 -12 -1 2 11 19 28
38 37 43 22 60 23 60 3z m489 -7 c-1 -7 -5 -24 -9 -38 -7 -22 -8 -21 -9 13 -1
20 4 37 9 37 6 0 10 -6 9 -12z m-608 -20 c8 -12 0 -46 -12 -54 -5 -3 -6 9 -2
27 l6 32 -44 -7 c-24 -4 -63 -10 -87 -13 -41 -5 -43 -7 -37 -32 4 -20 3 -22
-5 -11 -23 35 -12 46 63 62 72 15 106 14 118 -4z m566 -40 c-2 -13 -4 -3 -4
22 0 25 2 35 4 23 2 -13 2 -33 0 -45z m-54 -54 c0 -28 -4 -58 -9 -67 -6 -10
-9 14 -9 68 0 58 3 78 10 67 5 -9 9 -40 8 -68z m29 -11 c-9 -36 -10 -34 -10
32 0 62 1 66 10 38 7 -21 7 -44 0 -70z m-105 7 l13 -45 -5 58 c-3 31 -3 57 0
57 2 0 9 -19 16 -42 11 -41 2 -170 -9 -138 -3 9 -11 -3 -18 -30 -11 -44 -11
-43 -12 50 -1 52 -6 111 -11 130 -6 19 -11 37 -11 40 1 13 26 -40 37 -80z
m287 55 c3 -8 -15 -33 -42 -59 -43 -42 -47 -44 -64 -29 -10 9 -16 19 -13 21 3
3 10 1 17 -6 8 -8 21 -2 49 21 37 31 50 57 29 57 -5 0 -10 4 -10 10 0 13 27 1
34 -15z m604 11 c15 -8 35 -23 45 -33 17 -19 16 -21 -12 -57 -66 -83 -211
-178 -319 -210 -49 -14 -53 -14 -58 2 -3 9 -12 32 -20 50 -12 28 -12 32 1 32
8 0 21 -12 29 -27 l15 -28 -5 35 c-6 33 -4 36 39 57 25 12 54 19 66 16 24 -6
51 12 51 36 0 9 24 37 53 62 51 45 54 46 81 32 36 -19 45 -10 12 12 -46 31
-29 47 22 21z m-1103 -16 c-10 -11 -22 -17 -28 -13 -6 4 -3 12 8 20 28 20 41
16 20 -7z m529 -25 c-23 -19 -49 -47 -59 -62 l-18 -28 29 26 c39 35 94 72 99
67 3 -2 -52 -58 -121 -123 -92 -86 -122 -110 -109 -86 9 18 12 30 6 27 -6 -4
-11 -3 -11 2 0 11 172 186 197 201 33 19 28 11 -13 -24z m-496 -42 c-14 -18
-2 -16 27 3 24 16 25 16 25 -10 0 -15 -11 -50 -25 -79 l-26 -52 32 35 c17 19
48 56 69 83 22 27 42 43 45 37 7 -11 -131 -180 -151 -187 -6 -2 -10 21 -11 52
-1 33 -8 67 -18 81 -15 24 -12 50 5 39 5 -3 12 0 16 6 4 8 3 9 -4 5 -12 -7
-17 6 -6 17 12 12 33 -17 22 -30z m-438 -15 c0 -5 4 -7 9 -4 10 6 21 -16 21
-42 0 -11 -10 -6 -35 18 -40 39 -44 50 -15 43 11 -3 20 -10 20 -15z m197 -15
c14 -17 14 -17 9 0 -3 9 -2 17 3 17 4 0 12 -20 18 -45 9 -41 9 -44 -6 -33 -33
25 -71 62 -71 70 0 15 33 8 47 -9z m592 -32 c-5 -9 -35 -45 -67 -80 -46 -49
-60 -60 -65 -47 -4 10 -1 16 8 16 20 0 115 111 115 134 0 17 2 18 9 7 6 -9 6
-21 0 -30z m820 20 c63 -63 61 -82 -16 -151 -78 -70 -213 -126 -346 -144 l-38
-5 3 42 c3 48 33 66 41 25 4 -21 4 -20 6 4 1 22 9 31 39 44 20 9 56 16 78 15
35 -2 46 3 63 25 12 15 21 32 21 39 0 6 21 31 46 54 l46 42 36 -28 37 -28 -21
30 c-11 17 -24 36 -28 43 -11 19 12 14 33 -7z m-1220 -5 c6 -8 14 -36 17 -63
5 -37 3 -52 -9 -62 -17 -13 -37 -8 -37 11 0 5 7 8 15 4 22 -8 21 81 -2 106 -9
10 -11 18 -6 18 6 0 16 -6 22 -14z m191 -100 c-19 -97 -41 -138 -100 -181 -50
-37 -130 -66 -175 -64 -15 0 -11 4 14 15 l34 15 -26 27 -25 27 44 50 c45 51
58 52 25 2 -40 -61 15 -91 87 -47 18 11 37 18 42 15 12 -8 47 72 60 140 6 33
14 69 18 80 13 42 14 -16 2 -79z m-218 32 c-9 -9 -12 -7 -12 12 0 19 3 21 12
12 9 -9 9 -15 0 -24z m330 -119 c-69 -97 -146 -173 -200 -196 -75 -33 -278
-14 -348 31 -13 9 -24 26 -24 37 0 19 0 19 23 -2 37 -36 87 -51 188 -56 88 -5
101 -4 150 19 30 14 65 35 79 47 22 20 22 21 3 12 -42 -21 -38 -11 9 20 25 16
74 64 108 105 34 42 64 74 66 71 3 -3 -21 -43 -54 -88z m997 -13 c19 -102 16
-121 -26 -156 -98 -81 -241 -120 -370 -101 -42 6 -78 12 -79 14 -1 1 4 28 10
60 8 43 14 57 26 54 11 -2 14 -14 13 -42 l-2 -40 15 46 c13 41 19 47 47 52 17
3 36 1 42 -4 27 -26 125 9 125 45 0 7 30 31 67 55 72 46 78 45 89 -19 11 -64
14 -56 10 22 -6 112 14 120 33 14z m-1039 34 c0 -20 -60 -84 -95 -102 -11 -6
4 12 34 39 43 42 52 55 46 73 -5 15 -4 20 4 16 6 -4 11 -16 11 -26z m-483
-136 c-12 -13 -27 9 -26 39 l0 32 16 -32 c9 -18 14 -36 10 -39z m119 24 c16
-30 12 -50 -6 -32 -14 14 -31 76 -19 69 5 -4 16 -20 25 -37z m-52 -8 c7 0 18
-12 24 -26 12 -25 11 -25 -20 -22 -20 2 -32 8 -30 16 1 6 -2 12 -8 12 -5 0
-10 7 -10 16 0 11 5 14 16 10 9 -3 21 -6 28 -6z m1401 -244 c-14 -45 -33 -90
-41 -101 -30 -41 -225 -29 -369 22 -38 14 -74 29 -78 33 -10 9 72 89 91 90 17
0 15 -15 -3 -30 -8 -7 -15 -17 -15 -23 0 -6 13 1 28 16 33 32 72 35 97 7 27
-29 71 -25 112 10 18 17 40 30 48 30 7 0 34 9 59 20 54 23 55 20 27 -69 -10
-34 -17 -61 -14 -61 5 0 53 107 53 120 0 5 5 21 12 37 l12 28 4 -24 c2 -14 -8
-61 -23 -105z m-854 9 c92 -23 239 -76 239 -86 0 -14 -25 -11 -81 11 -90 36
-239 70 -303 70 -33 0 -83 -6 -111 -13 -36 -10 -59 -11 -82 -4 -48 15 -40 25
25 32 31 4 62 8 67 11 21 8 184 -5 246 -21z m-221 -39 c0 -9 -39 -13 -51 -5
-10 6 -4 9 19 9 17 0 32 -2 32 -4z m90 -16 c0 -13 -66 -24 -82 -13 -9 5 2 10
32 14 25 3 46 7 48 7 1 1 2 -2 2 -8z m50 -44 c-22 -9 -41 -10 -52 -4 -29 14
-21 18 35 17 l52 -1 -35 -12z m440 4 c0 -5 -9 -14 -21 -20 -11 -7 -18 -14 -16
-17 3 -2 19 3 36 11 16 9 33 16 36 16 3 0 21 -17 40 -37 33 -36 34 -36 72 -25
25 8 60 10 103 5 l65 -8 -50 -39 c-28 -22 -54 -44 -60 -49 -16 -14 75 33 117
61 21 14 41 22 44 19 10 -9 -76 -67 -152 -103 -81 -38 -100 -36 -204 16 -56
28 -165 118 -156 128 5 5 122 47 139 51 4 0 7 -3 7 -9z m-310 -20 c-20 -13
-80 -13 -80 0 0 6 21 10 48 10 34 0 43 -3 32 -10z m760 -68 c-95 -119 -300
-205 -415 -174 -37 9 -33 10 46 11 80 1 93 4 167 41 46 23 109 66 146 100 75
68 102 78 56 22z m-795 18 c7 0 21 -12 30 -27 l18 -26 -39 23 c-47 28 -67 46
-41 36 10 -3 25 -6 32 -6z m173 -9 c2 -6 -5 -12 -15 -12 -10 -1 -2 -4 17 -8
29 -5 36 -11 40 -36 5 -30 14 -35 85 -51 17 -4 24 -9 16 -11 -11 -5 -11 -7 0
-15 23 -16 -113 1 -138 17 -29 19 -123 116 -123 127 0 13 113 3 118 -11z
m-1482 -60 c-3 -4 -32 -18 -64 -30 -79 -28 -145 -76 -137 -99 3 -11 -6 -32
-21 -53 -39 -52 -96 -169 -90 -185 3 -8 1 -25 -4 -39 -30 -78 -33 -215 -5
-215 8 0 14 -23 17 -67 7 -84 43 -184 69 -190 11 -3 19 -9 19 -13 0 -4 21 -31
46 -59 25 -28 41 -51 36 -51 -6 0 -38 30 -72 68 -113 124 -179 302 -164 442
26 255 141 431 317 485 51 17 60 17 53 6z m199 -43 c39 -7 52 -14 41 -18 -13
-4 1 -12 45 -24 56 -17 61 -20 39 -26 l-25 -8 27 -1 c15 -1 29 -5 32 -10 4 -5
-2 -7 -12 -4 -10 2 -34 0 -53 -4 -31 -8 -42 -5 -114 41 -44 27 -84 53 -89 58
-14 12 41 10 109 -4z m-235 -28 c-24 -18 -24 -18 34 -2 49 13 60 14 64 3 9
-26 42 -51 69 -51 26 0 26 -1 7 -15 -21 -16 -8 -20 16 -6 29 19 30 -1 1 -34
-16 -18 -31 -39 -33 -46 -3 -8 -26 1 -74 29 -38 22 -95 49 -126 59 -32 10 -58
22 -58 26 0 8 98 57 115 57 6 0 -1 -9 -15 -20z m-112 -97 c-9 -10 -26 -38 -38
-62 l-22 -44 55 59 55 59 31 -34 c23 -25 37 -32 54 -27 32 8 50 -7 43 -35 -7
-23 -7 -23 9 -5 22 29 33 8 23 -41 l-9 -43 -160 0 c-87 0 -159 3 -159 8 0 27
104 182 122 182 6 0 4 -8 -4 -17z m390 -12 c11 -6 0 -36 -45 -132 -33 -68 -67
-130 -76 -137 -14 -12 -19 -10 -37 20 -24 39 -25 48 -6 48 11 0 16 15 18 53 2
43 6 51 20 49 11 -2 23 9 34 30 20 40 54 78 68 78 6 0 17 -4 24 -9z m56 -53
c-18 -35 -34 -73 -34 -86 0 -38 -38 -100 -101 -168 -32 -35 -59 -65 -59 -68 0
-2 20 4 44 12 25 9 40 19 34 23 -16 10 87 39 136 39 48 0 38 17 -14 23 l-35 3
32 8 c28 7 35 15 43 50 16 61 59 189 69 205 8 12 40 4 188 -44 331 -107 572
-166 746 -181 l78 -7 -44 -46 c-25 -25 -57 -70 -71 -98 -30 -60 -52 -71 -42
-20 4 23 3 28 -4 17 -5 -8 -10 -25 -10 -37 0 -25 -15 -31 -23 -10 -3 8 -22 3
-64 -20 -45 -23 -64 -28 -72 -20 -9 9 -17 8 -32 -2 -15 -9 -24 -10 -32 -2 -6
6 -15 11 -21 11 -5 0 -2 -6 9 -13 35 -26 -3 -27 -57 -2 -29 14 -71 28 -92 32
-38 6 -39 7 -15 16 l24 10 -24 5 c-71 12 -140 -34 -188 -125 -28 -53 -57 -133
-48 -133 3 0 12 12 20 28 16 26 16 26 10 2 -3 -14 -8 -57 -12 -96 -5 -59 -2
-78 16 -120 36 -80 -3 -30 -49 65 -42 86 -65 109 -31 30 11 -24 25 -80 32
-124 12 -84 27 -123 54 -145 13 -11 14 -10 8 6 -7 18 -6 18 22 -1 44 -28 97
-53 131 -60 22 -4 17 1 -21 21 -59 32 -115 73 -115 85 0 5 19 -4 43 -20 82
-55 152 -75 267 -75 82 -1 112 3 135 16 17 10 68 27 115 39 l85 21 15 -21 c69
-93 94 -120 155 -173 107 -91 253 -151 428 -174 63 -9 72 -25 10 -18 -116 13
-194 28 -282 55 -51 16 -105 29 -120 30 l-26 1 25 8 c14 4 20 8 15 9 -6 1 -34
16 -62 35 -46 30 -53 32 -67 18 -13 -14 -14 -13 -9 9 5 23 5 23 -10 4 -14 -19
-15 -18 -11 10 l5 30 -20 -35 c-10 -19 -33 -48 -51 -65 l-31 -30 20 45 c10 25
22 61 25 80 6 34 6 34 -14 -9 -22 -47 -38 -52 -20 -7 5 15 10 39 9 54 0 24 -2
22 -15 -13 -8 -22 -20 -44 -26 -50 -8 -7 -9 -4 -3 10 4 11 9 38 11 60 l4 40
-16 -43 c-9 -24 -33 -61 -53 -83 -21 -21 -35 -42 -32 -45 8 -8 -78 0 -104 10
-16 6 -15 4 5 -13 25 -20 25 -20 5 -35 -20 -14 -20 -15 4 -40 14 -14 21 -26
17 -26 -17 0 -107 52 -157 91 -30 23 -45 33 -35 21 25 -28 10 -28 -23 0 -14
11 1 -5 34 -38 34 -32 85 -72 114 -88 l54 -29 56 18 c31 9 85 30 120 46 76 34
75 34 61 9 -13 -24 -8 -25 30 -5 31 16 39 9 18 -14 -11 -11 -7 -12 22 -8 74
12 155 17 135 9 -37 -17 -187 -34 -194 -23 -4 6 -12 7 -21 1 -8 -6 -24 -10
-35 -10 -20 1 -20 1 -1 15 28 21 20 19 -69 -20 -44 -19 -96 -35 -116 -35 -38
0 -121 47 -190 108 -20 17 -39 29 -42 25 -4 -3 -16 2 -27 12 -17 15 -24 16
-45 7 -14 -6 -31 -9 -38 -6 -26 10 -101 -58 -129 -116 -29 -61 -48 -131 -25
-95 6 10 34 42 61 70 l48 50 -36 -49 c-38 -52 -91 -155 -83 -163 3 -2 24 21
46 51 45 61 55 68 47 34 -5 -20 -5 -20 6 2 6 14 21 41 32 60 l20 34 -39 -29
c-34 -25 -37 -26 -20 -6 30 36 105 81 134 81 61 0 101 -29 44 -31 -16 0 -23
-3 -16 -5 8 -4 4 -23 -13 -64 -25 -62 -31 -106 -14 -95 12 7 12 3 4 -19 -11
-28 -33 -17 -40 20 -6 32 9 115 31 169 7 18 5 17 -18 -4 -15 -13 -32 -40 -38
-60 -6 -20 -23 -58 -36 -85 -13 -26 -22 -54 -19 -62 3 -7 1 -16 -5 -19 -5 -4
-17 11 -27 33 l-18 40 -33 -39 c-18 -22 -36 -37 -41 -34 -4 3 -11 21 -15 41
l-6 36 -29 -27 -29 -27 -15 37 c-9 20 -13 41 -10 46 3 5 2 9 -3 9 -4 -1 -17
-15 -28 -33 -30 -47 -53 -47 -72 1 l-15 40 -22 -24 c-27 -32 -51 -24 -68 21
l-12 34 -23 -25 c-22 -24 -26 -25 -46 -11 -12 8 -27 28 -33 46 -10 32 -10 32
-29 11 -10 -11 -24 -20 -30 -20 -15 0 -29 31 -18 39 12 9 73 128 73 143 0 7
-8 0 -19 -15 -20 -32 -61 -63 -61 -48 0 5 5 13 10 16 13 8 60 100 60 116 0 7
-10 -2 -22 -19 -53 -72 -131 -172 -136 -172 -7 0 27 50 69 101 62 75 114 237
135 423 18 163 27 182 79 179 78 -5 79 -6 120 -110 36 -94 55 -130 55 -106 0
6 -7 27 -15 47 -40 96 -55 141 -40 122 8 -11 15 -24 15 -30 0 -5 2 -7 5 -4 3
3 1 17 -5 32 -7 20 -7 25 2 20 8 -5 9 -1 5 12 -5 14 -2 12 13 -6 21 -27 26
-21 9 12 -9 16 -8 19 2 13 9 -6 11 -3 6 8 -11 28 2 19 23 -15 11 -18 20 -28
20 -23 0 6 -9 25 -21 44 -11 18 -18 40 -14 49 3 8 -13 -2 -35 -22 -40 -36 -61
-41 -119 -30 l-32 7 59 61 c32 33 67 74 77 89 10 15 20 25 23 23 7 -8 -27 -56
-81 -113 -48 -51 -49 -53 -24 -53 19 0 42 18 91 72 71 78 89 84 29 9 -42 -52
-10 -31 43 28 l31 35 28 -29 c17 -18 24 -22 17 -10 -19 38 -60 67 -101 72 -35
5 -43 11 -61 47 -25 50 -37 65 -74 94 -28 21 -73 31 -62 13 3 -4 -17 -11 -45
-14 -28 -4 -71 -17 -95 -31 -24 -13 -44 -20 -44 -15 0 22 35 76 74 114 23 22
52 56 65 75 25 35 25 35 2 15 -20 -17 -17 -8 16 60 22 44 48 97 58 118 9 20
23 37 30 37 8 0 1 -23 -21 -62z m45 -44 c-46 -111 -73 -152 -38 -59 34 92 69
169 74 163 3 -3 -13 -50 -36 -104z m1805 4 c72 -98 80 -114 60 -122 -11 -4
-42 11 -85 41 -38 25 -69 48 -69 50 0 4 45 -14 80 -32 16 -8 32 -15 35 -15 4
0 -16 29 -44 65 -28 35 -51 69 -51 75 0 25 23 5 74 -62z m-2611 -49 c12 -46
26 -61 54 -56 19 3 23 1 18 -11 -3 -8 -8 -49 -12 -91 -4 -48 -11 -79 -19 -84
-22 -13 -17 -58 6 -64 11 -3 20 -10 20 -17 0 -6 3 -21 6 -34 5 -18 3 -21 -10
-16 -11 4 -16 0 -16 -14 0 -27 16 -37 28 -16 7 12 12 6 27 -31 9 -26 37 -77
61 -113 25 -36 43 -67 41 -69 -2 -2 -35 29 -73 69 -77 82 -125 163 -148 254
-19 75 -19 74 -1 74 34 0 48 86 19 115 -9 9 -23 14 -30 11 -16 -6 -18 15 -8
88 8 53 24 56 37 5z m2401 -61 c14 -31 14 -37 1 -42 -10 -4 -17 3 -21 22 -3
15 -10 40 -15 57 -9 27 -8 28 5 15 8 -8 22 -31 30 -52z m-62 -3 c11 -29 13
-47 7 -51 -16 -10 -26 7 -34 54 -9 55 6 54 27 -3z m118 -19 c0 -18 -17 8 -24
34 l-7 25 15 -25 c9 -14 15 -29 16 -34z m-176 15 c14 -27 7 -51 -15 -51 -10 0
-22 57 -14 70 9 15 13 13 29 -19z m-2079 -38 c-8 -67 -3 -67 22 1 l18 49 100
-2 c80 -1 103 -5 113 -18 11 -16 12 -16 12 0 0 25 27 21 33 -5 2 -13 7 -30 11
-39 6 -13 -3 -17 -56 -22 -72 -7 -153 -33 -239 -77 l-59 -30 0 33 c0 31 25
140 36 158 13 21 16 5 9 -48z m2041 9 c14 -33 14 -33 -23 -48 -20 -9 -46 -13
-59 -10 -15 4 -41 -3 -71 -18 -55 -28 -71 -32 -95 -22 -12 5 -29 -2 -55 -23
-47 -37 -90 -54 -99 -40 -3 6 -15 9 -25 6 -11 -3 -19 -3 -19 -1 0 17 36 66 77
105 47 46 50 47 128 53 44 4 105 13 135 21 76 18 90 15 106 -23z m570 -55 c32
-27 91 -113 83 -122 -8 -7 -159 -21 -159 -14 0 4 21 11 48 17 l47 10 -65 1
c-65 1 -66 1 -75 33 -10 31 -21 41 -59 52 -14 5 -16 9 -7 20 10 12 9 13 -7 9
-11 -2 -23 0 -26 6 -4 6 5 13 21 16 15 4 46 12 68 19 45 14 66 6 131 -47z
m-294 29 c11 -8 15 -20 11 -36 -5 -21 -3 -22 20 -16 22 5 33 -3 86 -61 34 -36
60 -71 58 -77 -2 -6 -26 -16 -53 -23 -75 -17 -95 -14 -39 8 34 12 40 17 20 14
-58 -8 -100 -9 -113 -1 -6 4 -12 20 -12 37 0 30 -30 69 -53 69 -8 0 -22 9 -31
19 -13 15 -14 20 -4 24 7 3 2 6 -11 6 -32 1 -21 11 37 31 60 22 63 22 84 6z
m-189 -57 c-5 -19 -3 -21 15 -17 14 4 28 -3 46 -21 27 -29 116 -161 116 -173
0 -7 -126 -48 -149 -48 -19 0 -2 20 17 20 9 1 31 7 47 15 29 14 28 14 -28 9
-65 -7 -86 7 -87 59 0 15 -10 36 -22 47 -70 64 -69 59 -27 84 36 21 33 31 -5
16 -55 -21 -59 -9 -6 19 61 31 92 27 83 -10z m-1821 -6 c14 -16 14 -22 -1 -55
-9 -20 -38 -54 -66 -75 -27 -22 -84 -74 -125 -116 -41 -42 -78 -77 -82 -77
-12 0 -38 95 -44 168 -9 94 11 98 22 5 4 -38 9 -59 10 -48 2 11 6 46 9 78 6
50 10 59 36 73 19 10 41 13 64 8 47 -8 82 2 90 26 8 26 32 25 56 -2 20 -23 20
-23 10 -1 -19 38 -6 47 21 16z m1682 -59 c43 -56 122 -186 128 -213 2 -9 -17
-20 -57 -32 -82 -25 -100 -23 -40 6 l50 23 -40 -5 c-22 -2 -49 -6 -59 -8 -26
-5 -45 22 -46 64 0 35 -32 81 -55 81 -7 0 -17 11 -23 24 -10 22 -8 25 19 36
46 19 45 31 -2 24 -31 -5 -40 -4 -35 4 4 7 13 12 19 12 7 0 28 9 47 19 19 11
38 20 42 20 4 1 27 -24 52 -55z m761 22 c43 -18 44 -26 5 -26 -19 0 -33 7 -40
20 -13 24 -10 24 35 6z m-923 -114 c26 -53 65 -121 87 -149 36 -47 39 -54 23
-62 -27 -14 -125 -41 -130 -36 -7 7 -4 9 43 29 l40 17 -53 -6 c-69 -8 -82 3
-82 66 0 44 -3 51 -40 80 -43 35 -50 54 -22 63 9 4 28 15 42 26 l25 20 -28
-10 c-16 -5 -40 -10 -55 -10 -23 0 -20 4 23 26 28 14 54 30 60 35 5 5 11 9 15
9 3 0 26 -44 52 -98z m1054 28 c23 -10 44 -22 47 -26 3 -5 -32 -8 -78 -6 -129
5 -308 -34 -524 -115 -53 -19 -244 -97 -426 -173 -448 -187 -681 -266 -717
-244 -7 5 17 13 57 21 39 7 75 19 80 27 6 7 43 19 84 26 48 8 79 19 89 31 9
10 22 19 30 19 41 0 152 33 152 45 0 8 18 19 43 25 54 14 117 41 117 51 0 4
29 17 64 29 36 12 75 29 88 39 13 10 56 28 97 39 41 12 78 27 82 34 5 7 48 25
96 39 64 19 88 31 87 42 -1 12 14 19 55 27 90 18 136 31 142 41 3 5 46 14 95
19 59 7 92 15 99 25 12 19 79 12 141 -15z m-2538 0 c-7 -10 -14 -17 -17 -15
-4 4 18 35 25 35 2 0 -1 -9 -8 -20z m1296 -46 c22 -69 75 -173 116 -224 17
-21 27 -41 23 -43 -13 -8 -116 -37 -130 -37 -27 0 -2 19 32 26 56 10 48 19
-14 16 -52 -3 -58 -1 -68 20 -6 15 -7 33 -1 50 12 33 -12 84 -47 100 -22 10
-42 50 -27 56 20 7 74 44 70 48 -3 2 -21 -3 -41 -11 -43 -18 -50 -18 -45 -5 3
10 85 56 104 59 6 0 18 -24 28 -55z m-159 -41 c22 -81 61 -173 101 -239 19
-32 33 -58 32 -59 -6 -5 -110 -25 -128 -25 -35 0 -21 17 23 27 l42 11 -52 1
c-66 1 -88 27 -84 101 1 38 -3 53 -24 78 -36 43 -32 67 13 92 l37 20 -37 -6
c-52 -9 -47 7 10 33 26 11 48 22 49 22 1 1 9 -25 18 -56z m-1225 -78 c-21
-101 -42 -149 -72 -169 -14 -8 -24 -4 -50 21 -18 18 -41 47 -51 65 -18 33 -18
33 13 -5 18 -21 42 -43 54 -49 21 -11 21 -11 -1 13 -12 13 -29 40 -37 60 l-15
36 47 46 c28 28 57 47 70 47 12 0 30 8 40 18 9 10 18 18 20 17 1 -1 -7 -46
-18 -100z m2708 80 c101 -41 183 -253 168 -440 -7 -101 -36 -217 -72 -290 -60
-122 -205 -218 -385 -255 -102 -21 -214 -27 -204 -10 3 6 18 10 33 10 42 0 77
23 76 48 0 16 7 24 25 29 48 11 123 57 137 84 12 24 12 30 -1 43 -14 14 -14
17 5 36 31 31 23 64 -17 68 -56 6 -122 -44 -108 -80 5 -13 -42 -44 -52 -35 -2
3 6 29 17 59 14 38 33 65 61 88 23 18 49 51 59 74 18 40 19 40 28 16 21 -57
20 -56 21 -37 2 46 -24 111 -59 148 -48 51 -165 104 -272 125 -70 14 -86 20
-77 30 6 7 8 17 5 23 -10 16 26 22 38 7 14 -18 59 -36 92 -36 13 0 33 -9 44
-20 37 -37 99 -15 87 30 -11 43 29 66 59 35 29 -28 104 -15 118 21 7 19 -19
54 -41 54 -7 0 -17 10 -22 22 -10 27 15 67 40 68 22 0 31 26 15 39 -7 6 -24
11 -37 11 -13 0 -45 3 -71 6 -42 5 -50 3 -70 -19 -20 -21 -35 -26 -83 -28 -90
-4 -80 19 18 48 188 53 336 63 425 28z m-1598 -199 c11 -35 34 -84 50 -110 17
-26 30 -48 30 -50 0 -7 -132 -27 -138 -22 -2 3 1 8 9 10 77 24 77 24 18 25
-55 1 -56 2 -73 39 -12 27 -15 45 -8 62 11 32 -2 81 -28 105 -27 25 -26 61 3
68 12 4 31 13 42 21 18 13 17 14 -24 9 -32 -4 -42 -3 -37 5 4 7 15 12 24 12 9
1 33 9 52 18 l35 17 12 -73 c6 -40 21 -101 33 -136z m-1055 123 c-8 -41 -19
-89 -25 -106 -12 -32 -10 -44 16 -107 6 -15 4 -17 -7 -11 -12 8 -12 6 -1 -8
19 -23 100 -60 116 -54 8 3 16 16 19 29 3 18 5 16 6 -9 1 -38 -13 -44 -59 -27
-60 21 -72 15 -35 -20 17 -17 40 -47 50 -66 l17 -35 -32 38 c-37 44 -91 74
-149 83 -32 5 -41 11 -41 26 0 23 27 78 39 78 11 0 47 84 56 130 11 58 36 142
40 138 3 -2 -2 -38 -10 -79z m886 -169 c6 -19 27 -64 46 -99 36 -67 34 -80
-12 -81 -11 0 -37 -3 -57 -6 -53 -9 -49 12 5 24 l42 10 -43 1 c-24 1 -52 5
-62 11 -26 14 -39 59 -33 114 5 38 2 53 -16 76 -11 16 -21 42 -21 58 0 24 6
32 38 45 l37 15 -32 1 c-53 2 -40 26 20 37 l52 9 13 -90 c6 -49 17 -106 23
-125z m1089 123 c0 -5 -28 -21 -63 -38 -66 -32 -83 -59 -51 -82 9 -7 18 -24
20 -38 3 -24 0 -25 -48 -25 -39 0 -57 6 -80 25 -39 33 -87 33 -127 0 -16 -14
-31 -35 -33 -47 -3 -18 -25 -27 -153 -64 -191 -55 -396 -107 -402 -101 -2 3
33 17 79 33 46 15 131 46 191 70 59 23 107 38 107 33 0 -5 13 -9 29 -9 30 0
82 34 78 51 -2 8 420 196 446 198 4 1 7 -2 7 -6z m-1960 -106 c0 -7 14 -34 30
-60 25 -40 27 -46 10 -37 -30 16 -72 110 -49 110 5 0 9 -6 9 -13z m683 -180
c30 -46 34 -56 18 -48 -23 13 -81 107 -81 131 1 11 4 9 12 -5 6 -11 29 -46 51
-78z m1335 67 c21 -6 22 -10 16 -68 -7 -67 -45 -196 -70 -236 l-15 -25 7 25
c17 59 23 97 23 125 -1 24 -3 19 -13 -20 -13 -53 -53 -136 -81 -170 l-17 -20
8 20 c15 43 34 120 34 140 0 11 -11 -5 -24 -36 -22 -54 -65 -124 -71 -117 -2
2 5 28 15 58 28 79 24 105 -5 44 -26 -53 -77 -111 -61 -69 11 27 36 118 36
129 0 6 -13 -11 -29 -36 -17 -26 -42 -54 -56 -64 -26 -17 -26 -17 -71 27 -28
28 -44 52 -45 69 0 23 -1 23 -9 5 -4 -11 -14 -40 -21 -65 l-13 -45 -7 90 c-4
50 -10 111 -13 136 l-6 47 87 21 c49 12 113 25 143 30 66 10 226 13 258 5z
m83 -14 c14 0 1 -80 -28 -172 -30 -98 -44 -108 -27 -20 7 37 13 98 14 136 0
58 2 67 16 62 9 -3 20 -6 25 -6z m67 -18 c15 -10 3 -81 -28 -166 -25 -65 -33
-70 -20 -11 5 22 10 73 10 113 0 72 7 83 38 64z m65 -42 c-3 -11 -7 -20 -9
-20 -2 0 -4 9 -4 20 0 11 4 20 9 20 5 0 7 -9 4 -20z m-2263 -58 c45 -62 52
-59 15 7 -33 57 -3 34 37 -28 33 -52 36 -47 8 11 -26 54 -19 60 14 11 29 -42
33 -94 12 -152 l-12 -34 -14 34 c-8 19 -14 37 -12 42 3 11 -76 12 -125 2 -31
-7 -49 16 -57 71 -8 62 0 68 15 11 6 -26 18 -52 27 -59 13 -11 14 -10 4 9 -18
33 -15 48 5 32 15 -13 15 -12 0 18 -24 46 -21 50 14 17 l32 -29 -26 39 c-36
54 -24 60 19 11 38 -43 36 -31 -3 22 -17 23 -19 31 -8 27 9 -4 33 -31 55 -62z
m2341 -28 c-7 -26 -32 -90 -56 -143 -24 -53 -53 -130 -66 -171 -32 -110 -55
-146 -143 -215 -234 -188 -311 -225 -461 -224 -103 1 -186 17 -193 38 -3 10 1
12 19 8 82 -22 181 -30 243 -19 95 15 155 46 295 152 l123 93 -6 51 -5 51 20
-40 19 -40 -4 60 -4 60 19 -40 19 -40 -5 50 c-4 45 -3 48 9 26 12 -22 13 -22
26 25 7 27 32 92 55 144 51 116 61 143 75 199 8 31 15 40 22 33 8 -8 7 -25 -1
-58z m34 -64 c-24 -46 -28 -32 -8 26 13 36 18 43 21 27 2 -12 -4 -36 -13 -53z
m-2337 -106 c2 -14 -16 -44 -49 -85 -28 -35 -59 -82 -69 -104 -27 -59 -64
-176 -65 -205 -4 -64 -6 -71 -15 -65 -10 6 -50 78 -50 90 0 4 9 3 20 0 20 -6
20 -5 -2 31 l-22 37 24 41 c14 24 26 65 29 101 6 56 9 61 51 94 25 19 37 32
28 28 -40 -14 -14 13 34 37 60 30 82 30 86 0z m831 -145 c24 -11 42 -22 39
-25 -4 -3 -25 4 -49 16 -34 18 -55 21 -110 18 -73 -4 -80 -1 -27 12 42 11 91
4 147 -21z m-839 -75 c0 -2 -13 -10 -30 -19 -28 -14 -30 -14 -30 2 0 13 8 18
30 19 17 1 30 0 30 -2z m1203 -59 c-5 -50 -2 -70 11 -90 9 -14 13 -25 9 -25
-5 0 0 -5 10 -11 42 -25 83 4 198 140 34 39 56 42 32 4 -40 -64 -176 -253
-194 -269 -35 -32 -41 -2 -9 46 l30 45 -34 6 c-38 6 -97 40 -79 46 7 3 9 19 6
43 -6 45 5 130 16 130 5 0 6 -29 4 -65z m357 58 c0 -3 -22 -40 -49 -82 -26
-42 -79 -132 -116 -201 -78 -143 -73 -135 -81 -127 -8 8 29 113 67 190 31 60
45 75 29 30 -14 -38 0 -19 73 101 50 83 77 114 77 89z m-390 -30 c-1 -30 -25
-151 -32 -158 -2 -2 -16 6 -30 18 l-27 22 22 67 c19 59 29 72 60 77 4 0 7 -11
7 -26z m-1240 -22 c0 -11 -9 -38 -21 -62 -17 -36 -19 -39 -15 -14 l6 30 -20
-35 c-29 -53 -23 -24 19 83 12 30 31 28 31 -2z m80 -11 c0 -26 -47 -130 -55
-122 -5 4 -6 0 -3 -9 4 -10 0 -16 -9 -16 -12 0 -14 10 -10 46 l4 46 -18 -40
c-21 -48 -25 -33 -5 23 18 50 77 116 88 99 4 -7 8 -19 8 -27z m890 -11 c-7
-24 -19 -53 -27 -64 -9 -11 -13 -13 -11 -5 28 87 41 121 45 117 2 -3 -1 -24
-7 -48z m-65 1 c-10 -20 -15 -44 -11 -61 7 -36 -10 -38 -26 -4 -9 21 -7 31 16
66 32 47 45 46 21 -1z m-745 -1 c0 -10 5 -27 11 -37 9 -15 7 -30 -9 -73 -20
-52 -21 -54 -57 -53 -20 1 -41 6 -47 12 -12 12 13 106 37 137 l15 20 -6 -20
c-3 -11 4 -6 16 12 23 35 40 35 40 2z m114 -32 c6 -27 -11 -148 -23 -160 -12
-12 -82 3 -88 19 -7 19 42 122 69 144 30 25 35 25 42 -3z m804 -56 c-88 -101
-196 -211 -206 -211 -7 0 -12 7 -12 15 0 8 5 15 11 15 5 0 8 4 4 9 -9 16 26
78 51 90 14 6 27 24 33 47 15 54 38 76 65 62 19 -10 20 -10 7 6 -23 27 4 38
45 18 l33 -15 -31 -36z m-704 33 c11 -28 6 -140 -6 -157 -11 -13 -20 -15 -51
-8 -21 5 -41 12 -44 15 -12 11 20 95 49 130 33 40 43 44 52 20z m110 -20 c8
-22 6 -114 -4 -144 -6 -20 -8 -14 -10 30 -2 56 -4 55 -15 -13 -5 -32 -10 -38
-28 -35 -18 2 -22 9 -21 35 1 19 -2 30 -8 27 -12 -8 30 76 50 99 19 21 28 22
36 1z m1461 -10 c-60 -51 -183 -95 -264 -94 -36 1 -11 13 59 29 30 8 93 30
140 51 103 46 102 46 65 14z m-1367 -80 c3 -39 0 -70 -6 -76 -8 -8 -10 6 -6
48 5 64 1 63 -16 -3 -8 -34 -15 -43 -32 -43 -19 0 -20 4 -15 50 7 58 43 118
60 101 6 -6 13 -41 15 -77z m100 43 c5 -18 5 -41 1 -52 -4 -11 -10 -32 -13
-47 -6 -24 -11 -28 -41 -28 -21 0 -35 5 -35 13 0 49 53 162 71 152 5 -3 13
-20 17 -38z m119 12 c7 -13 13 -48 13 -76 l0 -53 -50 0 c-48 0 -50 1 -50 28 0
38 47 135 62 130 7 -3 19 -15 25 -29z m82 -6 c10 -26 10 -27 -4 -9 -21 27 -29
14 -27 -44 1 -50 -11 -73 -22 -44 -5 14 9 97 20 116 9 15 21 8 33 -19z m292
-20 c26 -21 48 -43 49 -50 0 -13 -96 -97 -152 -131 -19 -12 -55 -29 -79 -37
-41 -15 -44 -14 -63 4 -22 23 -15 41 9 21 9 -8 15 -8 15 -2 0 6 -5 14 -10 17
-16 10 27 58 63 70 22 7 35 19 42 40 6 17 18 41 27 55 l18 24 27 -20 c51 -37
58 -37 26 -3 -31 33 -40 49 -27 49 3 0 28 -17 55 -37z m-1171 -89 c0 -35 -4
-64 -9 -64 -13 0 -31 58 -30 94 l2 31 7 -35 7 -35 2 43 c2 69 21 39 21 -34z
m40 39 c0 -10 3 -34 6 -55 5 -29 2 -40 -15 -54 -11 -10 -21 -22 -21 -27 0 -5
7 -4 15 3 13 10 19 10 35 -5 11 -10 26 -15 36 -11 10 4 22 -1 30 -11 11 -15
16 -16 33 -6 16 10 22 9 32 -3 12 -15 35 -15 71 1 13 5 23 -2 39 -30 l22 -37
30 30 30 30 23 -26 24 -27 28 32 27 32 17 -30 c22 -37 42 -37 69 1 l22 30 19
-31 c24 -39 57 -36 77 6 14 28 14 29 22 7 10 -27 35 -38 52 -23 10 8 21 3 45
-19 34 -30 44 -21 15 13 -18 19 -17 20 5 8 13 -7 27 -22 32 -34 7 -18 9 -19 9
-4 1 10 -4 27 -9 38 -9 16 -7 19 14 19 17 0 41 -18 81 -62 l56 -63 -21 -17
c-12 -10 -34 -27 -48 -39 l-27 -21 28 16 c15 9 38 23 51 31 19 13 25 13 34 2
8 -10 1 -20 -33 -42 -37 -26 -62 -61 -51 -72 2 -2 23 8 47 22 64 36 69 31 13
-12 -27 -20 -66 -52 -87 -71 -53 -46 -124 -90 -167 -102 -39 -11 -433 -35
-575 -35 -80 0 -97 3 -155 31 -96 46 -170 108 -170 142 0 36 27 130 46 160 8
12 22 34 31 50 l17 27 -22 -19 -22 -19 0 67 c0 42 6 79 16 98 9 17 13 40 10
54 -4 14 -2 24 4 24 5 0 10 -9 10 -21 0 -23 36 -58 61 -59 14 0 16 9 11 65 -4
56 -2 65 12 65 9 0 16 -8 16 -17z m72 -12 c8 -1 -1 -65 -14 -101 l-10 -25 -13
33 c-8 18 -17 48 -21 67 -6 36 -4 36 58 26z m56 -7 c15 -4 22 -14 22 -30 0
-29 -29 -104 -40 -104 -20 0 -37 90 -24 124 7 18 9 18 42 10z m86 -29 l36 -15
-15 -38 c-18 -41 -51 -79 -61 -69 -10 9 -18 103 -11 122 8 18 6 18 51 0z
m1021 -29 c30 -24 30 -25 10 -40 -64 -51 -268 -128 -295 -111 -18 11 -11 28
10 22 11 -3 20 -2 20 1 0 12 60 42 83 42 23 0 57 27 57 45 0 23 48 47 69 35
30 -16 36 -12 16 10 -25 28 -6 25 30 -4z m-906 1 c12 -16 -7 -96 -30 -123 -11
-13 -14 -11 -26 17 -7 17 -13 51 -13 75 0 42 1 44 29 44 16 0 34 -6 40 -13z
m72 -7 c12 0 11 -36 -2 -85 -10 -37 -12 -38 -25 -20 -31 42 -30 123 2 111 9
-3 20 -6 25 -6z m109 -14 c0 -34 -13 -106 -20 -106 -12 0 -30 50 -30 85 0 31
3 35 25 35 14 0 25 -6 25 -14z m40 -3 c-1 -10 -8 -31 -16 -48 -8 -16 -12 -22
-9 -12 3 10 5 32 5 48 0 16 5 29 10 29 6 0 10 -8 10 -17z m110 -5 c0 -33 -32
-93 -50 -93 -18 0 -46 75 -37 98 4 12 18 17 47 17 35 0 40 -3 40 -22z m96 7
c6 -15 -34 -95 -48 -95 -12 0 -28 46 -28 81 0 27 3 29 35 29 22 0 38 -6 41
-15z m-324 -20 c-2 -14 -6 -25 -8 -25 -2 0 -4 11 -4 25 0 14 4 25 9 25 4 0 6
-11 3 -25z m882 -54 l28 -29 -38 -26 c-43 -27 -166 -70 -230 -80 -35 -5 -44
-2 -64 19 -19 20 -20 25 -7 25 9 0 19 -4 22 -10 9 -15 25 -12 19 4 -6 16 43
36 86 36 17 0 40 13 63 35 41 40 52 42 87 18 l25 -17 -18 27 c-23 36 -8 35 27
-2z m86 -144 c0 -18 -123 -76 -195 -91 -27 -6 -32 -3 -52 34 -23 43 -16 55 10
18 l16 -23 -2 30 c-2 28 0 30 30 27 21 -2 37 3 50 16 36 38 56 43 82 19 l24
-22 -12 22 c-21 41 -11 48 19 13 16 -19 30 -38 30 -43z m-299 -43 c8 -9 23
-33 34 -53 11 -20 27 -36 35 -36 9 0 22 -20 32 -50 9 -27 23 -51 31 -53 29 -6
44 -183 19 -228 -7 -12 -11 6 -14 62 -7 101 -40 183 -118 292 -33 45 -53 82
-46 82 8 0 20 -7 27 -16z m336 -78 c-8 -19 -108 -67 -154 -73 -36 -5 -39 -3
-50 28 -15 38 -9 51 11 24 12 -17 13 -16 12 6 -1 18 4 24 19 22 11 -1 37 10
58 24 35 24 38 25 56 9 18 -16 18 -15 14 11 l-5 28 22 -33 c12 -18 20 -38 17
-46z m-277 -101 c71 -141 77 -245 20 -324 -40 -55 -69 -68 -215 -93 -101 -17
-130 -19 -146 -10 -26 16 -54 15 -69 -3 -7 -8 -22 -15 -35 -15 -39 0 -117 -28
-141 -51 -30 -28 -31 -11 -2 26 21 27 21 27 1 16 -12 -6 -31 -23 -43 -38 l-21
-28 5 35 c5 25 3 31 -5 23 -6 -6 -13 -29 -16 -52 -7 -53 14 -108 72 -191 37
-53 44 -69 39 -95 -6 -32 15 -63 35 -51 14 9 34 -90 28 -141 -3 -31 -18 -65
-50 -111 -50 -74 -133 -159 -143 -149 -11 10 16 65 35 70 14 3 17 19 19 95 3
129 -19 192 -109 317 -136 190 -165 294 -103 372 49 61 135 97 359 149 210 49
279 73 333 118 36 31 40 28 16 -12 l-16 -27 26 28 c31 34 33 25 6 -23 l-21
-35 34 38 c23 25 43 37 60 37 52 0 77 84 30 105 -14 6 -27 27 -38 65 -9 30
-19 62 -21 70 -13 36 40 -42 76 -115z m-131 58 c-24 -26 -23 -27 26 -7 11 5
15 -1 15 -22 0 -50 -7 -52 -103 -40 l-88 11 32 30 c18 17 29 24 25 18 -15 -27
36 -12 72 21 41 39 58 29 21 -11z m427 -61 c6 -30 4 -33 -37 -51 -24 -11 -62
-21 -84 -23 -37 -3 -40 -1 -46 30 -3 17 -3 32 2 32 5 0 9 -8 10 -17 1 -12 4
-9 8 7 5 19 13 24 30 22 14 -2 31 5 44 18 l20 22 18 -23 17 -23 -5 30 c-8 41
15 19 23 -24z m-36 -122 c5 0 11 8 13 18 3 9 5 3 6 -15 1 -29 -3 -33 -36 -42
-21 -6 -53 -11 -71 -11 -30 0 -32 2 -26 28 8 34 14 41 14 17 0 -18 1 -18 13
-2 17 24 71 38 75 20 2 -7 7 -13 12 -13z m-27 -110 c-10 -43 -23 -52 -62 -45
-49 9 -52 12 -39 40 6 13 14 22 19 20 4 -3 11 -1 14 5 4 6 22 9 40 8 31 -2 34
-4 28 -28z m-161 -72 c-7 -7 -12 -8 -12 -2 0 14 12 26 19 19 2 -3 -1 -11 -7
-17z"/>
<path d="M2521 5319 c-88 -22 -108 -34 -150 -88 l-32 -41 41 15 c54 19 66 11
38 -25 -13 -16 -35 -46 -50 -67 -14 -22 -43 -48 -63 -59 -35 -18 -37 -18 -50
-1 -12 17 -14 15 -34 -16 -11 -19 -34 -51 -51 -72 -37 -46 -38 -65 -5 -65 14
0 25 4 25 9 0 20 32 41 53 36 16 -4 38 6 77 35 70 53 209 139 286 178 53 27
240 89 319 107 l30 7 -28 14 c-52 28 -179 54 -256 53 -42 0 -109 -9 -150 -20z"/>
<path d="M2245 5203 c-92 -61 -255 -206 -255 -227 0 -16 13 -8 67 44 l66 65
-56 -65 c-31 -35 -54 -66 -52 -68 2 -2 28 7 58 21 45 21 65 40 133 128 112
145 115 153 39 102z"/>
<path d="M1614 4100 c-33 -13 -40 -31 -19 -46 10 -8 19 -24 20 -36 5 -65 156
-111 254 -77 36 13 51 50 30 76 -21 25 -90 53 -133 53 -22 0 -47 7 -56 15 -21
19 -69 27 -96 15z"/>
<path d="M1451 4056 c-15 -18 11 -40 39 -31 24 8 27 30 4 39 -23 9 -30 8 -43
-8z"/>
<path d="M1316 4019 c-14 -11 -23 -25 -20 -31 3 -5 -4 -16 -15 -25 -34 -24
-24 -57 18 -61 66 -7 171 38 171 72 0 17 -77 66 -105 66 -12 0 -34 -9 -49 -21z"/>
<path d="M2002 4004 c-70 -49 52 -154 180 -154 48 0 59 4 76 25 14 18 29 25
55 25 77 0 70 71 -11 100 -34 12 -48 12 -75 2 -28 -10 -42 -9 -77 3 -55 19
-120 19 -148 -1z"/>
<path d="M1513 3934 c-9 -24 23 -44 69 -44 45 0 63 25 33 46 -27 20 -94 18
-102 -2z"/>
<path d="M1740 3865 c0 -15 46 -32 57 -22 3 4 3 13 0 22 -8 20 -57 20 -57 0z"/>
<path d="M2346 3870 c-95 -29 -86 -139 17 -195 30 -16 35 -23 30 -42 -7 -29
19 -60 64 -79 39 -17 125 -18 140 -3 8 8 22 8 49 0 55 -15 124 -13 158 4 23
12 36 13 59 5 72 -25 125 -4 113 44 -9 38 -92 104 -153 122 -57 17 -88 12
-102 -15 -12 -21 -81 -17 -81 4 0 7 -2 20 -5 27 -4 9 4 19 20 26 32 15 32 35
-2 62 -22 17 -37 21 -70 17 -26 -3 -62 3 -95 14 -57 20 -97 22 -142 9z"/>
<path d="M1851 3836 c-27 -32 44 -96 106 -96 37 0 47 12 39 46 -13 49 -116 85
-145 50z"/>
<path d="M2090 3770 c-12 -8 -13 -13 -3 -29 7 -11 10 -27 7 -35 -9 -23 32 -56
70 -56 60 0 74 48 21 72 -14 6 -25 17 -25 24 0 13 -30 34 -47 34 -4 0 -15 -5
-23 -10z"/>
<path d="M1078 3739 c-10 -5 -18 -21 -18 -34 0 -20 5 -25 24 -25 29 0 58 26
54 49 -4 19 -36 25 -60 10z"/>
<path d="M3307 3663 c-15 -15 -6 -33 17 -33 23 0 41 22 29 34 -8 8 -38 8 -46
-1z"/>
<path d="M2215 3469 c-22 -5 -53 -21 -70 -35 -28 -23 -28 -24 -3 -9 15 9 53
25 85 35 61 19 55 24 -12 9z"/>
<path d="M2220 3424 c-16 -10 -18 -13 -5 -8 11 3 49 10 85 14 l65 7 -60 1
c-38 1 -69 -4 -85 -14z"/>
<path d="M2286 3401 c-11 -4 9 -7 50 -8 44 0 62 3 49 8 -25 10 -74 10 -99 0z"/>
<path d="M1854 3279 c14 -17 26 -35 26 -41 0 -6 3 -9 6 -5 8 8 -35 77 -48 77
-5 0 2 -14 16 -31z"/>
<path d="M2175 3276 c-35 -16 -82 -63 -72 -73 4 -3 7 -1 7 5 0 19 61 55 114
68 47 11 48 12 16 13 -19 0 -48 -6 -65 -13z"/>
<path d="M2507 3226 c26 -24 50 -42 53 -39 6 6 -79 83 -92 83 -6 0 12 -20 39
-44z"/>
<path d="M2195 3246 c-16 -8 -43 -28 -60 -46 l-30 -33 41 32 c23 18 59 39 80
46 22 8 30 14 19 14 -11 0 -33 -6 -50 -13z"/>
<path d="M1935 3178 c11 -6 27 -16 35 -22 9 -6 5 -1 -8 12 -13 12 -28 22 -35
22 -7 0 -3 -6 8 -12z"/>
<path d="M1920 3159 c14 -6 34 -18 45 -27 12 -9 8 -5 -7 11 -16 15 -36 27 -46
26 -12 0 -9 -3 8 -10z"/>
<path d="M2032 3045 c-14 -30 -16 -119 -3 -95 9 16 24 120 18 120 -2 0 -9 -11
-15 -25z"/>
<path d="M1945 2986 c10 -14 19 -26 22 -26 7 0 -17 39 -28 46 -6 3 -3 -5 6
-20z"/>
<path d="M1881 2935 c0 -5 6 -21 14 -35 8 -14 14 -20 14 -15 0 6 -6 21 -14 35
-8 14 -14 21 -14 15z"/>
<path d="M1666 2911 c-3 -4 -12 -64 -20 -132 -8 -68 -24 -158 -35 -199 -16
-59 -19 -86 -12 -125 5 -27 9 -40 10 -28 0 13 23 47 50 77 27 30 52 63 56 75
13 40 24 21 18 -33 -3 -30 -1 -68 6 -86 9 -28 9 -31 -4 -20 -9 8 -15 8 -15 2
0 -6 16 -20 36 -32 26 -16 45 -21 70 -17 32 5 33 5 23 -16 -10 -22 -10 -22 10
1 26 30 45 124 38 192 -6 52 -89 276 -123 328 -11 17 -24 22 -59 22 -24 0 -46
-4 -49 -9z"/>
<path d="M1850 2905 c0 -5 5 -17 10 -25 5 -8 10 -10 10 -5 0 6 -5 17 -10 25
-5 8 -10 11 -10 5z"/>
<path d="M1985 2735 c2 -11 7 -33 10 -50 l6 -30 -15 30 -15 30 4 -50 5 -50
-15 35 -15 35 5 -35 c4 -25 2 -31 -5 -20 -5 8 -10 11 -10 5 0 -5 -7 1 -15 15
-14 24 -14 23 -8 -20 9 -56 9 -136 -1 -174 -6 -24 1 -20 50 34 32 33 73 70 93
80 l36 19 -31 1 c-29 0 -32 3 -38 43 -4 23 -16 60 -26 82 -11 22 -18 31 -15
20z"/>
<path d="M2027 2499 c-47 -31 -109 -96 -129 -134 -6 -12 4 -6 27 15 l38 35
-30 -45 c-17 -25 -35 -56 -42 -70 -10 -21 -8 -20 11 5 12 17 44 53 71 80 l49
50 -38 -55 -38 -55 47 43 c25 23 49 42 53 42 3 0 -11 -24 -32 -52 l-38 -53 78
73 c89 82 122 96 52 22 -25 -27 -46 -52 -46 -55 0 -3 29 19 65 50 36 30 71 55
78 56 20 2 70 -2 92 -6 11 -3 2 4 -20 16 -37 19 -38 20 -10 15 17 -2 39 -8 50
-11 16 -6 16 -3 -5 14 -34 29 -113 51 -180 51 -47 0 -65 -6 -103 -31z"/>
<path d="M2448 2500 c13 -6 31 -6 45 0 18 7 14 9 -23 9 -37 0 -41 -2 -22 -9z"/>
<path d="M1651 2474 c-12 -15 -21 -36 -21 -47 0 -25 2 -23 29 31 24 48 22 54
-8 16z"/>
<path d="M2362 2477 c14 -12 33 -35 42 -52 12 -25 15 -27 17 -10 1 12 6 5 14
-20 l13 -40 1 36 c1 36 -27 73 -76 98 -35 18 -40 13 -11 -12z"/>
<path d="M1671 2367 c-6 -7 -17 -38 -24 -68 -10 -39 -16 -48 -20 -34 -3 11 -5
4 -4 -15 3 -48 30 -52 53 -8 16 30 16 32 1 19 -22 -17 -22 -6 -3 67 15 55 15
60 -3 39z"/>
<path d="M1798 2327 c-14 -32 -7 -111 12 -152 l19 -40 -1 70 c0 39 -3 59 -7
45 -4 -17 -7 -7 -11 35 -3 40 -7 54 -12 42z"/>
<path d="M1935 2270 c4 -14 11 -43 16 -65 6 -22 8 -56 5 -75 l-5 -35 19 40
c21 43 26 85 10 85 -5 0 -19 17 -30 38 -15 26 -19 30 -15 12z"/>
<path d="M1610 2202 c0 -44 35 -55 65 -21 19 20 19 20 -8 10 -20 -8 -30 -7
-42 5 -8 9 -15 11 -15 6z"/>
<path d="M4055 3089 c-12 -18 4 -57 26 -64 38 -12 65 35 37 63 -15 15 -55 16
-63 1z"/>
<path d="M4080 2953 c-19 -24 -21 -35 -14 -73 4 -25 7 -65 6 -89 -2 -52 20
-98 53 -113 28 -12 55 3 55 31 1 9 15 25 33 36 26 16 33 28 35 60 5 59 -14
109 -53 144 -46 40 -86 41 -115 4z"/>
<path d="M3893 2774 c-8 -22 10 -49 33 -49 22 0 31 30 14 50 -16 20 -39 19
-47 -1z"/>
<path d="M4049 2511 c-28 -29 -39 -74 -20 -86 6 -3 4 -19 -5 -40 -18 -44 -18
-79 1 -95 49 -40 185 111 185 205 0 42 -19 54 -64 37 -20 -8 -34 -8 -40 -2
-16 16 -25 12 -57 -19z"/>
<path d="M2085 1978 c-4 -18 -9 -42 -11 -53 -4 -15 -3 -17 4 -5 11 17 25 90
18 90 -2 0 -7 -15 -11 -32z"/>
<path d="M2213 1965 c-8 -36 -8 -45 3 -45 10 0 14 14 14 45 0 25 -1 45 -3 45
-2 0 -8 -20 -14 -45z"/>
<path d="M2191 1978 c0 -14 -4 -35 -7 -45 -5 -17 -5 -17 6 0 6 10 9 30 7 45
l-4 27 -2 -27z"/>
<path d="M1360 1840 c-5 -10 -10 -40 -10 -67 l0 -48 20 25 20 25 0 -24 c0 -13
-15 -52 -34 -85 -19 -34 -40 -90 -47 -125 -11 -60 -11 -66 6 -75 10 -6 51 -34
91 -63 40 -28 74 -49 77 -47 2 2 20 -3 41 -11 31 -13 56 -14 174 -5 75 6 212
14 304 18 145 7 171 11 195 28 34 26 45 51 15 35 -39 -21 -44 -11 -14 27 26
33 52 75 52 84 0 2 -24 -19 -54 -47 -30 -27 -69 -59 -88 -69 l-33 -19 26 29
c23 25 70 92 93 132 5 8 -21 -15 -56 -50 -36 -35 -85 -74 -109 -87 l-44 -24
50 54 c83 88 93 106 35 58 -63 -53 -131 -99 -144 -99 -5 0 12 22 38 50 60 64
59 73 -2 18 -27 -23 -73 -56 -103 -72 l-54 -29 60 63 60 62 -80 -54 c-45 -30
-96 -60 -115 -66 l-35 -12 40 36 40 36 -35 -20 c-45 -25 -144 -54 -164 -47
-52 16 -51 15 -21 37 18 12 22 17 10 13 -58 -19 -71 -17 -114 19 -23 20 -60
41 -82 47 -42 13 -48 29 -28 72 23 51 81 59 154 22 27 -13 50 -23 52 -22 6 7
-86 59 -120 68 -22 6 -37 13 -34 15 5 5 39 -3 92 -21 11 -3 4 3 -15 15 -33 20
-33 21 -7 15 36 -7 34 2 -5 20 l-33 15 30 -5 c28 -4 28 -4 8 7 l-23 11 26 24
c31 29 50 25 47 -8 l-3 -24 12 23 c12 23 25 27 47 13 10 -7 11 -13 1 -32 -11
-24 -11 -23 12 2 20 21 28 24 51 16 22 -7 26 -12 16 -23 -6 -8 -7 -14 -2 -14
9 0 63 52 63 61 0 3 -15 3 -34 1 -26 -3 -39 1 -52 16 -14 17 -20 18 -35 9 -15
-9 -24 -9 -39 1 -11 6 -28 12 -39 12 -10 0 -24 7 -31 15 -7 9 -21 13 -31 10
-13 -4 -19 -1 -19 9 0 9 -7 16 -15 16 -8 0 -15 4 -15 9 0 19 -30 20 -40 1z"/>
<path d="M1770 1716 l-35 -41 33 27 c28 24 36 26 57 16 17 -8 25 -20 25 -37
l1 -26 15 28 c26 48 84 30 102 -34 l10 -34 1 34 c1 33 2 34 17 15 15 -18 15
-18 9 9 -3 15 -3 27 0 27 3 0 11 -12 17 -27 l12 -28 3 30 c4 28 7 30 43 31 30
1 40 -3 48 -20 10 -20 11 -20 11 7 1 16 7 27 15 27 8 0 17 4 20 8 5 8 -44 7
-84 -3 -17 -4 -32 0 -46 14 -22 20 -22 20 -40 0 -22 -24 -60 -25 -76 0 -11 19
-12 18 -40 -2 -28 -21 -28 -21 -55 -1 l-28 20 -35 -40z"/>
<path d="M1625 1620 c8 -27 44 -90 51 -90 5 0 -45 101 -53 110 -3 3 -2 -6 2
-20z"/>
<path d="M2334 1522 c-6 -4 -16 -22 -22 -41 -10 -28 -10 -31 2 -22 8 7 19 25
25 42 11 32 11 32 -5 21z"/>
<path d="M2273 1478 c-6 -7 -13 -26 -17 -42 -6 -25 -5 -28 7 -17 15 12 32 60
24 67 -2 3 -9 -1 -14 -8z"/>
<path d="M2081 1818 l1 -53 19 40 c24 51 24 65 -1 65 -18 0 -20 -6 -19 -52z"/>
<path d="M2196 1834 c-4 -14 -5 -29 -2 -31 3 -3 8 7 12 21 3 15 4 29 1 32 -2
3 -8 -7 -11 -22z"/>
<path d="M2539 1225 c-44 -55 -63 -62 -93 -34 -6 5 -16 9 -22 9 -17 0 -45 -60
-39 -81 8 -23 59 -41 88 -30 12 4 39 6 60 3 24 -3 46 1 62 12 33 22 59 77 52
108 -6 24 -42 68 -56 68 -4 0 -28 -25 -52 -55z"/>
<path d="M2233 1148 c-24 -11 -36 -34 -27 -49 10 -17 81 -10 108 12 21 17 24
24 15 35 -13 16 -64 17 -96 2z"/>
<path d="M2060 1123 c-26 -10 -50 -35 -50 -54 0 -25 44 -52 75 -47 14 3 28 1
31 -3 10 -17 61 -9 79 11 18 20 18 21 -3 27 -13 3 -22 13 -22 24 0 35 -62 59
-110 42z"/>
<path d="M1890 1050 c-6 -11 -8 -25 -5 -30 3 -5 0 -18 -7 -29 -9 -15 -9 -23 1
-35 8 -9 19 -16 27 -16 20 0 46 31 40 47 -3 8 -1 23 4 33 5 10 7 26 4 34 -9
23 -51 20 -64 -4z"/>
<path d="M2337 1063 c-28 -7 -16 -38 17 -41 39 -5 57 15 32 34 -11 8 -22 13
-25 13 -3 -1 -14 -3 -24 -6z"/>
<path d="M1806 924 c-19 -18 -20 -30 -5 -73 21 -58 79 -63 79 -5 0 61 -44 108
-74 78z"/>
<path d="M1924 775 c-4 -8 -10 -13 -14 -10 -4 3 -13 -2 -20 -10 -15 -19 1 -85
25 -105 20 -16 45 -6 45 19 0 11 5 23 11 27 6 4 9 19 5 37 -10 50 -40 74 -52
42z"/>
<path d="M2002 633 c5 -25 28 -28 28 -4 0 12 -6 21 -16 21 -9 0 -14 -7 -12
-17z"/>
<path d="M1995 561 c-10 -32 14 -69 49 -74 38 -6 46 -2 46 24 0 11 -10 23 -24
28 -13 5 -26 17 -29 25 -9 22 -34 20 -42 -3z"/>
<path d="M2033 444 c-8 -21 13 -42 28 -27 13 13 5 43 -11 43 -6 0 -13 -7 -17
-16z"/>
<path d="M2052 358 c-15 -15 -16 -38 -2 -38 12 0 23 25 18 40 -2 7 -7 7 -16
-2z"/>
</g>
</svg>
